<?xml version="1.0" encoding="UTF-8" standalone="no"?>
<!-- Created with Inkscape (http://www.inkscape.org/) -->

<svg
   width="2627.3262"
   height="1696.719"
   viewBox="0 0 2627.3262 1696.719"
   version="1.1"
   id="svg5"
   inkscape:version="1.1.2 (0a00cf5339, 2022-02-04, custom)"
   sodipodi:docname="denizMall.svg"
   xmlns:inkscape="http://www.inkscape.org/namespaces/inkscape"
   xmlns:sodipodi="http://sodipodi.sourceforge.net/DTD/sodipodi-0.dtd"
   xmlns="http://www.w3.org/2000/svg"
   xmlns:svg="http://www.w3.org/2000/svg"
   xmlns:rdf="http://www.w3.org/1999/02/22-rdf-syntax-ns#"
   xmlns:cc="http://creativecommons.org/ns#"
   xmlns:dc="http://purl.org/dc/elements/1.1/">
  <title
     id="title945">Deniz Mall</title>
  <sodipodi:namedview
     id="namedview7"
     pagecolor="#ffffff"
     bordercolor="#666666"
     borderopacity="1.0"
     inkscape:pageshadow="2"
     inkscape:pageopacity="0.0"
     inkscape:pagecheckerboard="0"
     inkscape:document-units="px"
     showgrid="true"
     showborder="true"
     inkscape:snap-bbox="true"
     inkscape:snap-smooth-nodes="true"
     inkscape:snap-midpoints="true"
     inkscape:snap-intersection-paths="true"
     inkscape:object-paths="true"
     inkscape:snap-global="true"
     inkscape:zoom="0.11549479"
     inkscape:cx="1155.8963"
     inkscape:cy="1359.3687"
     inkscape:window-width="1358"
     inkscape:window-height="742"
     inkscape:window-x="4"
     inkscape:window-y="22"
     inkscape:window-maximized="0"
     inkscape:current-layer="layer2" />
  <defs
     id="defs2">
    <marker
       style="overflow:visible"
       id="Arrow1Lstart"
       refX="0"
       refY="0"
       orient="auto"
       inkscape:stockid="Arrow1Lstart"
       inkscape:isstock="true">
      <path
         transform="matrix(0.8,0,0,0.8,10,0)"
         style="fill:context-stroke;fill-rule:evenodd;stroke:context-stroke;stroke-width:1pt"
         d="M 0,0 5,-5 -12.5,0 5,5 Z"
         id="path12645" />
    </marker>
  </defs>
  <g
     inkscape:groupmode="layer"
     id="layer2"
     inkscape:label="vector"
     style="display:inline"
     transform="translate(1694.9226,60.317359)">
    <g
       id="g15490"
       transform="translate(-1365.154,880.57477)">
      <rect
         style="fill:#4c566a;stroke-width:3.3285;stroke-linecap:round;stroke-linejoin:round"
         id="rect10304"
         width="1273.9775"
         height="808.67395"
         x="1023.58"
         y="-52.847065" />
      <g
         id="g12029"
         transform="translate(-3.3543756,-1.3264982)">
        <path
           style="fill:#88c0d0;stroke-width:2.59208;stroke-linecap:round;stroke-linejoin:round"
           d="m 1671.6692,582.07846 c -28.2014,-1.18 -94.828,-3.90522 -148.0592,-6.05602 -53.2311,-2.15081 -96.8237,-3.98 -96.8723,-4.06485 -0.2411,-0.42053 13.1653,-163.53525 13.4636,-163.81162 0.1907,-0.17666 3.2741,-2.21944 6.8518,-4.53953 18.5376,-12.02103 39.8428,-19.76315 63.9027,-23.22161 12.6708,-1.82134 37.6556,-1.82255 52.0405,-0.003 34.1218,4.31722 70.3562,15.08156 107.8806,32.04873 l 9.1567,4.14032 21.9934,83.35573 c 12.0963,45.84565 22.0095,83.61402 22.0293,83.92971 0.02,0.31568 -0.2223,0.52743 -0.538,0.47056 -0.3156,-0.0569 -23.6478,-1.06889 -51.8491,-2.2489 z"
           id="path10121" />
        <path
           style="fill:#88c0d0;stroke-width:2.59208;stroke-linecap:round;stroke-linejoin:round"
           d="m 1824.3468,571.10431 c 0,-0.38518 54.71,-136.70582 60.5974,-150.99032 l 2.2738,-5.51671 13.9085,-5.47993 c 35.1751,-13.85892 69.0297,-24.96078 102.3009,-33.54729 15.1492,-3.90965 39.8421,-9.49939 40.1608,-9.09121 0.096,0.12299 2.2572,3.34476 4.8027,7.15948 l 4.628,6.93586 -13.1521,77.57525 c -7.2336,42.66639 -13.4842,77.68245 -13.8902,77.81347 -0.406,0.13103 -44.9917,7.99574 -99.0794,17.47713 -54.0877,9.4814 -99.2883,17.43315 -100.4458,17.67057 -1.1575,0.23741 -2.1046,0.23458 -2.1046,-0.006 z"
           id="path10123" />
        <path
           style="fill:#88c0d0;stroke-width:2.59208;stroke-linecap:round;stroke-linejoin:round"
           d="m 1300.4979,538.47175 c -27.7805,-10.45356 -50.772,-19.113 -51.0924,-19.2432 -0.836,-0.33978 -44.8035,-138.70619 -44.1599,-138.97215 1.4234,-0.58827 66.1902,23.76624 79.5636,29.91864 l 5.7398,2.64056 30.9321,71.84083 c 17.0126,39.51246 31.0667,72.09912 31.2312,72.41481 0.1645,0.31569 -0.1517,0.5364 -0.7027,0.49048 -0.551,-0.0459 -23.7313,-8.6364 -51.5117,-19.08997 z"
           id="path10125" />
        <path
           style="fill:#81a1c1;stroke-width:2.59208;stroke-linecap:round;stroke-linejoin:round"
           d="m 1324.5121,487.02558 c -17.098,-39.66001 -30.9868,-72.22536 -30.8639,-72.36744 0.1229,-0.14208 13.3499,6.20642 29.3933,14.10779 22.0225,10.8461 29.064,14.64176 28.7381,15.49109 -0.2375,0.61874 -5.114,9.0025 -10.8368,18.63057 l -10.405,17.50558 2.1197,4.76143 c 1.1659,2.61878 9.8182,20.17119 19.2273,39.00534 9.4092,18.83416 17.1076,34.41761 17.1076,34.6299 0,0.21229 -3.0134,0.37673 -6.6964,0.36542 l -6.6964,-0.0206 z"
           id="path10127" />
        <path
           style="fill:#81a1c1;stroke-width:2.59208;stroke-linecap:round;stroke-linejoin:round"
           d="m 1428.97,454.78468 -3.1597,-26.71302 2.8721,-6.45059 c 1.9859,-4.46035 3.7403,-7.16632 5.6863,-8.77035 1.5479,-1.27587 2.9663,-2.16772 3.1521,-1.98191 0.2568,0.25682 -4.1196,58.12957 -5.1964,68.71564 -0.1071,1.05229 -1.6165,-10.1076 -3.3544,-24.79977 z"
           id="path10129" />
        <path
           style="fill:#81a1c1;stroke-width:2.59208;stroke-linecap:round;stroke-linejoin:round"
           d="m 1704.2725,501.35422 c -11.9234,-45.2712 -21.5198,-82.47034 -21.3254,-82.66475 0.3482,-0.34826 41.8372,21.46085 42.7759,22.48558 0.2655,0.28983 -3.0804,11.71951 -7.4352,25.39928 l -7.9179,24.8723 11.8357,44.26249 c 6.5096,24.34436 11.8356,44.54465 11.8356,44.88952 0,0.53766 -6.2883,3.06683 -7.6251,3.06683 -0.2556,0 -10.2203,-37.04007 -22.1436,-82.31125 z"
           id="path10131" />
        <path
           style="fill:#81a1c1;stroke-width:2.59208;stroke-linecap:round;stroke-linejoin:round"
           d="m 1809.0408,571.60688 c 0,-0.31849 7.5949,-19.00141 16.8775,-41.51761 9.2827,-22.5162 16.9059,-41.45512 16.9406,-42.0865 0.035,-0.63137 -5.1369,-10.44637 -11.4922,-21.81109 l -11.5553,-20.66315 2.0764,-0.99183 c 11.5434,-5.51396 61.8389,-28.22448 62.062,-28.02359 0.1606,0.14467 -13.7795,35.23025 -30.9781,77.96794 l -31.2702,77.7049 h -6.3304 c -3.4817,0 -6.3303,-0.26058 -6.3303,-0.57907 z"
           id="path10133" />
        <path
           style="fill:#81a1c1;stroke-width:2.59208;stroke-linecap:round;stroke-linejoin:round"
           d="m 2043.9884,526.24232 c 0,-0.25202 6.3535,-18.51572 14.1188,-40.586 l 14.1189,-40.12779 -7.1567,-12.78355 -7.1568,-12.78355 20.3974,-13.36836 c 11.2186,-7.35259 20.49,-13.11742 20.6032,-12.81071 0.2465,0.66789 -42.64,131.11953 -43.3409,131.83402 -0.6279,0.64003 -11.5839,1.23204 -11.5839,0.62594 z"
           id="path10135" />
        <path
           style="fill:#88c0d0;stroke-width:3.66575;stroke-linecap:round;stroke-linejoin:round"
           d="m 1607.1761,318.49989 c -3.8693,-0.72714 -11.2965,-1.66248 -16.5051,-2.07854 -5.2086,-0.41604 -9.4701,-0.89899 -9.4701,-1.07321 0,-0.17422 3.0821,-8.50569 6.8492,-18.51439 10.3707,-27.55346 19.4944,-48.4839 31.1868,-71.54451 11.5693,-22.81772 12.9366,-26.93535 10.287,-30.97915 -3.1124,-4.75011 -18.0855,-6.43421 -28.8319,-3.24288 -6.6455,1.97351 -9.8839,3.80352 -15.0158,8.48537 -4.778,4.35897 -4.6237,3.8986 7.4328,-22.17759 l 9.7274,-21.03874 h 47.6551 47.6552 l 7.5474,16.76196 c 4.151,9.21908 7.5474,17.25599 7.5474,17.8598 0,0.60382 -2.2445,2.28855 -4.9878,3.74384 -6.9405,3.68196 -24.8203,20.98244 -35.7816,34.62244 -14.8582,18.4891 -34.0493,47.73527 -51.1974,78.02201 l -7.0637,12.47566 z"
           id="path10137" />
        <path
           style="fill:#5e81ac;stroke-width:3.66575;stroke-linecap:round;stroke-linejoin:round"
           d="m 1627.1496,150.65417 c 0.3653,-1.63698 2.2404,-8.82074 4.1669,-15.96392 l 3.5028,-12.9876 15.8597,-0.29903 c 14.4168,-0.27184 15.909,-0.12415 16.402,1.62345 0.2983,1.05736 1.8332,7.7669 3.411,14.91008 1.5778,7.14318 3.06,13.59639 3.2938,14.34047 0.3311,1.05425 -4.8425,1.35288 -23.4377,1.35288 h -23.8626 z"
           id="path10139" />
        <path
           style="fill:#d8dee9;stroke-width:3.66575;stroke-linecap:round;stroke-linejoin:round"
           d="m 1397.2099,565.10239 -25.4341,-6.15059 -19.1707,-38.42164 c -10.5439,-21.13191 -18.9995,-39.24104 -18.7901,-40.24253 0.3787,-1.81162 20.0045,-35.51846 20.6806,-35.51846 0.195,0 6.7855,3.65276 14.6456,8.11725 12.3855,7.03485 14.9942,8.11724 19.5636,8.11724 h 5.2724 l 4.7162,-7.30552 c 7.9376,-12.29558 25.9663,-33.79034 27.2581,-32.49858 0.2435,0.2436 -0.1122,1.91337 -0.7906,3.71062 -0.993,2.63086 -0.5271,9.3161 2.3904,34.30206 l 3.6239,31.03434 -3.1422,40.57584 c -1.9741,25.49259 -3.5597,40.54883 -4.2656,40.50319 -0.6179,-0.04 -12.5688,-2.84041 -26.5575,-6.22322 z"
           id="path10141" />
        <path
           style="fill:#d8dee9;stroke-width:3.66575;stroke-linecap:round;stroke-linejoin:round"
           d="m 1724.6,536.91184 c -6.4456,-24.07273 -11.7193,-44.37672 -11.7193,-45.11997 0,-1.09683 14.3739,-47.89704 15.0357,-48.95511 0.3159,-0.50496 13.2685,7.4227 14.3629,8.79083 0.5538,0.69235 4.2297,12.41862 8.1686,26.05837 3.9388,13.63974 7.3413,24.97934 7.5611,25.1991 0.6998,0.69983 23.8051,-1.78622 24.5393,-2.64035 0.3875,-0.45067 3.2886,-9.9639 6.447,-21.14051 l 5.7426,-20.32111 11.2883,-6.05497 c 6.2584,-3.35696 11.6844,-5.63522 12.1773,-5.11294 0.4889,0.51812 5.812,9.79788 11.8291,20.62168 l 10.9402,19.67965 -16.9747,41.47029 c -9.3361,22.80867 -17.1343,41.67437 -17.3293,41.92379 -0.195,0.24941 -16.1034,2.45966 -35.352,4.91166 l -34.9974,4.45819 z"
           id="path10143" />
        <path
           style="fill:#d8dee9;stroke-width:3.66575;stroke-linecap:round;stroke-linejoin:round"
           d="m 2029.2892,532.70603 c 0.01,-0.44645 5.8285,-34.90417 12.9326,-76.57271 l 12.9165,-75.761 -4.824,-7.30552 c -2.6532,-4.01804 -4.5725,-7.30553 -4.265,-7.30553 0.3074,0 7.7386,-1.19014 16.5137,-2.64476 8.7751,-1.45461 20.825,-3.17936 26.7777,-3.83277 5.9526,-0.6534 12.2683,-1.42042 14.0348,-1.70448 2.7067,-0.43524 0.4476,2.14309 -14.3644,16.39428 -9.6668,9.30092 -21.4697,21.57552 -26.2286,27.2769 -12.6759,15.18642 -17.8308,27.04538 -9.6577,22.21738 1.7265,-1.01987 3.309,-1.6364 3.5167,-1.37006 1.9491,2.50011 12.6766,22.8188 12.6766,24.01048 0,0.85541 -6.2449,19.28962 -13.8776,40.96492 l -13.8777,39.40965 -5.3208,3.51747 c -5.3822,3.55811 -6.9822,4.18074 -6.9528,2.70575 z"
           id="path10145" />
        <path
           style="fill:#e5e9f0;stroke-width:3.66575;stroke-linecap:round;stroke-linejoin:round"
           d="m 1752.7454,455.48192 c -26.3076,-17.91082 -65.0214,-38.67374 -95.3291,-51.12672 -78.8943,-32.41656 -146.2667,-36.16491 -196.5824,-10.93716 -26.433,13.25322 -47.4082,32.89626 -66.1019,61.90355 -4.0085,6.22 -6.2477,6.01906 -19.6089,-1.75964 -85.8862,-50.0017 -185.3648,-86.84967 -254.6876,-94.33911 -9.7797,-1.05656 -12.8317,-1.81425 -15.6331,-3.88102 l -3.4809,-2.56814 h 3.1116 c 4.9992,0 37.662,5.27946 54.1297,8.74927 46.4897,9.7956 97.0428,26.06563 141.7812,45.63098 20.4343,8.93644 60.0576,28.75548 72.9509,36.48905 5.0024,3.00046 9.5239,5.45539 10.0478,5.45539 0.5239,0 2.0242,-1.82638 3.334,-4.05863 6.1008,-10.39738 19.6707,-30.01355 27.8858,-40.31074 47.9587,-60.11382 109.6648,-91.45452 170.5556,-86.62581 29.6737,2.35315 57.2039,9.84756 83.3791,22.69787 25.131,12.33771 42.8519,25.18613 61.5569,44.63134 16.7501,17.41292 28.6557,34.29917 39.6265,56.20393 l 5.2067,10.39591 30.5976,-15.34292 c 86.1593,-43.20388 162.9095,-69.71975 232.4465,-80.30628 13.7811,-2.09806 23.8595,-2.85307 44.1462,-3.30712 15.0701,-0.33729 26.1479,-1.00954 25.9593,-1.57531 -0.5065,-1.51951 -21.757,-11.00334 -37.2573,-16.62742 -36.9812,-13.41817 -83.491,-23.56078 -118.891,-25.92715 -5.3574,-0.35812 -11.4453,-0.94343 -13.5288,-1.30068 -3.6086,-0.61877 -3.4548,-0.72 3.2469,-2.13691 11.115,-2.34998 42.2207,-6.61446 61.2091,-8.39153 73.0389,-6.83552 151.1129,0.46059 210.2492,19.64803 l 12.2473,3.97381 -9.3087,2.47108 c -24.5372,6.5137 -76.1158,31.97119 -130.8256,64.57119 -7.6469,4.55655 -14.2088,8.28464 -14.5821,8.28464 -1.0444,0 12.9753,-14.0193 27.4032,-27.40239 7.1432,-6.62589 13.1681,-12.47926 13.3888,-13.00748 0.7782,-1.86251 -27.1184,1.59424 -73.9976,9.16928 -25.7302,4.15765 -124.0727,34.59779 -146.1159,45.22755 -5.9556,2.87194 -15.6882,7.29017 -21.6281,9.8183 -25.2428,10.7439 -79.5939,37.68924 -88.7313,43.98988 -1.2457,0.85894 -4.6266,1.41545 -8.1173,1.33614 -5.6569,-0.12852 -6.7478,-0.65704 -20.0523,-9.71503 z"
           id="path10147" />
        <path
           style="fill:#e5e9f0;stroke-width:1.29604;stroke-linecap:round;stroke-linejoin:round"
           d="m 2051.4501,421.47401 c 0,-1.78403 5.5314,-10.44182 10.4453,-16.34919 1.952,-2.34655 2.9157,-3.01273 13.9063,-9.61261 66.84,-40.13785 119.3835,-66.05813 145.9741,-72.01053 4.941,-1.10608 6.4642,-1.22821 6.4482,-0.51706 -0.01,0.26307 -0.5656,1.49602 -1.2436,2.73988 l -1.2329,2.26158 -4.2873,0.85428 c -27.3375,5.44723 -86.034,37.10922 -157.379,84.89329 -6.6275,4.4388 -12.1807,8.12793 -12.3405,8.19808 -0.1599,0.0702 -0.2906,-0.13582 -0.2906,-0.45772 z"
           id="path10149" />
        <path
           style="fill:#eceff4;stroke-width:1.29604;stroke-linecap:round;stroke-linejoin:round"
           d="m 1772.0505,441.97835 c -14.7247,-30.03577 -35.6152,-56.57139 -59.9407,-76.13812 l -3.7802,-3.04067 6.1594,-3.27775 c 41.0851,-21.86348 81.4158,-36.02007 124.9725,-43.86695 22.2175,-4.00254 40.6871,-5.88312 63.9631,-6.51274 48.2412,-1.30492 96.9911,5.46464 144.9369,20.12637 17.8447,5.45684 39.9438,13.88607 51.4939,19.64118 l 3.8265,1.90665 -7.653,-0.13265 c -9.676,-0.16772 -25.1272,0.32867 -34.0559,1.09408 -62.849,5.38772 -138.4603,27.87791 -222.3591,66.13955 -19.3516,8.82523 -45.4139,21.77643 -59.5295,29.58221 -2.0358,1.12577 -3.8438,2.04205 -4.0178,2.03619 -0.1741,-0.006 -1.9813,-3.40668 -4.0161,-7.55735 z"
           id="path10151" />
        <path
           style="fill:#eceff4;stroke-width:1.29604;stroke-linecap:round;stroke-linejoin:round"
           d="m 1774.7779,447.1548 c -0.6484,-1.10491 -2.463,-4.59181 -4.0324,-7.74868 -1.5694,-3.15687 -3.3594,-6.60073 -3.9778,-7.65302 -0.6184,-1.05229 -1.2865,-2.26561 -1.4846,-2.69626 -0.3012,-0.65455 -1.38,-2.47494 -4.839,-8.16464 -1.602,-2.63528 -2.2846,-3.70611 -2.4676,-3.87115 -0.1167,-0.10523 -0.4546,-0.66195 -0.751,-1.23716 -0.2964,-0.57521 -0.8558,-1.38592 -1.243,-1.80159 -0.3873,-0.41567 -0.7041,-0.9208 -0.7041,-1.12252 0,-0.20172 -0.1292,-0.42416 -0.287,-0.49432 -0.1579,-0.0702 -0.7854,-0.89326 -1.3946,-1.82914 -0.6091,-0.93587 -1.2547,-1.88293 -1.4346,-2.10458 -0.1798,-0.22164 -1.7477,-2.31943 -3.4842,-4.66175 -8.9246,-12.03843 -23.0809,-26.97549 -34.4045,-36.30222 -4.9865,-4.10708 -5.5031,-4.64222 -4.8936,-5.0693 1.7127,-1.20024 24.7584,-12.67307 32.3144,-16.08706 31.5648,-14.2619 63.138,-24.13616 96.9299,-30.31407 7.9581,-1.45493 22.4789,-3.69832 26.0923,-4.03113 0.947,-0.0872 2.4107,-0.24729 3.2525,-0.35568 1.3279,-0.17099 8.3125,-0.78939 17.6815,-1.5655 3.8831,-0.32167 6.2091,-0.40186 21.3489,-0.73602 45.7699,-1.01021 92.5259,5.5063 138.7109,19.33253 17.9364,5.36954 39.1702,13.31889 52.7542,19.74966 l 4.7315,2.23994 -11.2366,0.0348 c -17.4213,0.0539 -29.5637,0.67932 -40.892,2.10615 -1.7889,0.22532 -3.8552,0.47848 -4.5918,0.56259 -0.7366,0.0841 -2.1141,0.26818 -3.0612,0.40905 -0.9471,0.14087 -1.9802,0.29353 -2.2959,0.33925 -0.3157,0.0457 -1.691,0.20686 -3.0563,0.3581 -1.3653,0.15123 -2.5805,0.33562 -2.7005,0.40975 -0.1199,0.0741 -1.0692,0.23451 -2.1094,0.35641 -3.1444,0.36847 -12.5444,2.05364 -20.45,3.66616 -4.1039,0.83708 -7.9782,1.61472 -8.6096,1.72809 -0.6314,0.11336 -1.4062,0.30083 -1.7219,0.41659 -0.3157,0.11576 -1.0906,0.29489 -1.722,0.39808 -0.9974,0.16301 -9.122,2.09324 -11.0012,2.61365 -1.2962,0.35899 -2.4032,0.61541 -3.5395,0.81995 -0.6314,0.11364 -1.4493,0.36781 -1.8176,0.56483 -0.3683,0.19701 -0.6696,0.27875 -0.6696,0.18164 0,-0.0971 -1.5067,0.24343 -3.3482,0.75673 -1.8415,0.51331 -3.7787,1.02699 -4.3048,1.14152 -5.431,1.18214 -30.8373,8.90566 -44.0049,13.37748 -15.9085,5.40267 -42.7727,15.38745 -43.8859,16.3114 -0.2759,0.22892 -0.5016,0.30299 -0.5016,0.16458 0,-0.1384 -0.3874,-0.0386 -0.8609,0.22173 -0.4736,0.26036 -1.0332,0.50358 -1.2436,0.54048 -0.9106,0.15969 -28.0748,11.55964 -29.8468,12.52577 -0.4209,0.22949 -0.9375,0.44991 -1.148,0.48982 -0.2104,0.0399 -1.7602,0.71969 -3.4438,1.51062 -1.6837,0.79093 -3.2334,1.48187 -3.4439,1.53542 -0.6288,0.15999 -13.9751,6.30146 -22.385,10.30076 -10.5272,5.00612 -34.2583,16.95309 -42.1762,21.23283 -3.5191,1.9021 -6.5721,3.45837 -6.7843,3.45837 -0.2123,0 -0.9166,-0.90402 -1.5651,-2.00892 z"
           id="path10153" />
        <path
           style="fill:#eceff4;stroke-width:1.29604;stroke-linecap:round;stroke-linejoin:round"
           d="m 1758.9334,335.80342 c -0.5804,-3.50212 -0.7587,-3.23035 3.2327,-4.92626 44.4139,-18.87118 90.1616,-33.12196 129.3359,-40.28919 43.2951,-7.92115 81.8485,-8.19654 111.1601,-0.79403 6.3589,1.60592 13.4215,3.92106 13.0611,4.28148 -0.1,0.0995 -3.2512,0.42434 -7.0037,0.7219 -24.2327,1.92156 -51.3002,5.69946 -76.693,10.70436 l -10.5594,2.08124 -8.9558,5.8e-4 c -46.7533,0.003 -96.0703,8.65252 -140.3963,24.62356 -4.3144,1.55451 -8.9502,3.27945 -10.3019,3.83318 -1.3516,0.55374 -2.5061,1.00679 -2.5655,1.00679 -0.059,0 -0.2008,-0.55962 -0.3142,-1.24361 z"
           id="path10155" />
        <path
           style="fill:#eceff4;stroke-width:1.29604;stroke-linecap:round;stroke-linejoin:round"
           d="m 1758.1719,330.45506 c -0.083,-0.26789 -0.6017,-3.67263 -1.1532,-7.56611 -0.5515,-3.89347 -1.7849,-11.87255 -2.7409,-17.73128 -0.956,-5.85874 -1.6734,-10.71707 -1.5941,-10.79629 0.2612,-0.26126 5.4084,2.53619 8.5746,4.66023 5.5203,3.70324 14.3748,11.04609 21.4358,17.77623 l 3.1173,2.97131 -4.6479,1.81163 c -4.0924,1.59505 -17.4076,7.03596 -21.3976,8.74354 -1.1269,0.48227 -1.4766,0.51095 -1.594,0.13074 z"
           id="path10157" />
        <path
           style="fill:#eceff4;stroke-width:1.29604;stroke-linecap:round;stroke-linejoin:round"
           d="m 1492.7799,333.14461 c -25.5774,-8.72441 -71.3926,-20.11954 -100.4458,-24.98285 -5.1517,-0.86236 -5.0319,-0.80159 -3.734,-1.89374 4.4656,-3.75751 14.8287,-8.85397 24.0145,-11.81001 31.5603,-10.15633 71.5865,-8.04626 117.6953,6.20457 7.8806,2.43567 18.3029,6.05688 18.8522,6.55019 0.1781,0.15996 0.2006,2.52083 0.05,5.24637 l -0.2741,4.95553 -3.8763,0.66131 c -14.4042,2.45739 -30.4468,7.62074 -46.1592,14.85645 l -2.8699,1.32162 z"
           id="path10159" />
        <path
           id="path10161"
           style="fill:#eceff4;stroke-width:1.29604;stroke-linecap:round;stroke-linejoin:round"
           d="m 1285.3379,299.02148 c -46.2958,-0.40899 -88.6562,5.28875 -124.0293,16.83594 l -5.2617,1.7168 v -0.0293 l -3.7305,1.34766 c -7.1821,2.59478 -15.4269,6.02219 -15.3125,6.36523 0.063,0.19036 3.1251,1.95803 6.8047,3.92774 3.6796,1.96971 6.8269,3.59778 6.9941,3.61718 0.1672,0.0194 1.4149,-0.24466 2.7735,-0.58593 l 2.4707,-0.61914 v -0.0274 l 8.1308,-1.85156 c 39.9713,-9.09873 81.3895,-14.50865 125.6055,-16.4043 12.2846,-0.52621 45.424,-0.52824 57.7813,-0.004 40.7296,1.72821 78.7285,6.27485 117.2148,14.02539 4.6984,0.94618 8.7391,1.65402 8.9785,1.57422 0.5715,-0.1905 -13.9506,-4.2532 -27.0332,-7.56446 -38.3907,-9.71682 -76.9219,-16.4404 -113.8926,-19.87109 -16.1936,-1.50269 -32.0622,-2.31679 -47.4941,-2.45313 z" />
        <path
           style="fill:#eceff4;stroke-width:1.29604;stroke-linecap:round;stroke-linejoin:round"
           d="m 1382.0025,446.64141 c -0.4209,-0.32073 -4.1231,-2.53627 -8.227,-4.92341 -42.0126,-24.4376 -97.0537,-48.47455 -146.8831,-64.14512 -41.8879,-13.17312 -85.1126,-22.58305 -123.069,-26.79188 l -4.2012,-0.46585 1.6719,-0.71007 c 6.1054,-2.59296 27.7956,-9.44871 41.5517,-13.13348 44.6816,-11.96866 90.0017,-18.81844 143.494,-21.68804 11.5761,-0.621 53.5076,-0.6198 65.0506,0.002 49.7126,2.67731 91.5273,8.48185 135.7533,18.8447 3.5295,0.82702 6.5428,1.50415 6.6963,1.50474 0.1536,5.8e-4 -2.3037,1.43687 -5.4606,3.19173 -10.3831,5.77184 -17.3465,10.24983 -26.2116,16.856 -28.0331,20.89019 -53.6598,50.11844 -75.1874,85.75414 -2.0342,3.36733 -3.8142,6.15964 -3.9556,6.20513 -0.1413,0.0455 -0.6014,-0.17971 -1.0223,-0.50044 z"
           id="path10165" />
        <path
           style="fill:#d08770;stroke-width:3.66575;stroke-linecap:round;stroke-linejoin:round"
           d="m 1550.8965,313.06546 c 0,-6.62351 3.0498,-31.25702 5.4244,-43.81315 7.2359,-38.26142 21.7682,-65.30779 39.8656,-74.19513 5.3919,-2.64787 7.347,-3.00504 16.4492,-3.00504 11.8328,0 16.1864,1.76838 16.1864,6.57482 0,1.50527 -3.8548,10.21459 -8.5662,19.35404 -13.5556,26.29591 -31.3076,67.57783 -38.8865,90.4295 l -2.3369,7.04606 -12.0179,0.22285 c -6.6098,0.12257 -12.9404,0.51567 -14.068,0.87354 -1.768,0.56114 -2.0501,0.0812 -2.0501,-3.48749 z"
           id="path10167" />
        <path
           style="fill:#d08770;stroke-width:3.66575;stroke-linecap:round;stroke-linejoin:round"
           d="m 1746.2917,336.94683 c 0.3807,-2.9029 1.0144,-16.47981 1.4083,-30.1709 l 0.7162,-24.8929 1.9774,11.36415 c 1.0875,6.25028 2.908,17.45209 4.0456,24.8929 1.1375,7.44081 2.2965,14.82364 2.5756,16.40629 0.5246,2.9754 0.6523,2.88452 -10.0069,7.11899 -1.094,0.4346 -1.2539,-0.61859 -0.7162,-4.71853 z"
           id="path10169" />
        <path
           style="fill:#d08770;stroke-width:3.66575;stroke-linecap:round;stroke-linejoin:round"
           d="m 1696.9748,354.22218 c -18.9727,-13.01024 -50.6086,-26.79006 -75.5042,-32.88779 l -4.6457,-1.13789 4.556,-8.33374 c 27.5806,-50.44917 60.5081,-94.72519 83.092,-111.72963 7.3409,-5.52732 18.209,-10.46792 19.667,-8.94059 3.1297,3.27837 9.9059,33.65588 11.7617,52.72739 1.439,14.78768 1.4691,43.77922 0.063,60.15025 -1.5668,18.23557 -5.4468,43.65089 -6.8739,45.02543 -0.6808,0.65577 -5.8791,3.65893 -11.5518,6.67372 l -10.3139,5.48143 -10.2497,-7.02858 z"
           id="path10171" />
        <path
           style="fill:#88c0d0;stroke-width:3.66575;stroke-linecap:round;stroke-linejoin:round"
           d="m 1733.1321,343.30355 c 4.3261,-25.35802 5.453,-39.69115 5.4975,-69.92584 l 0.046,-31.23362 2.4092,7.92076 c 4.3355,14.2543 4.9982,22.96849 4.2276,55.59541 -0.3941,16.68577 -1.011,31.94041 -1.3708,33.89921 -0.5031,2.73885 -1.6144,4.05124 -4.811,5.68207 -6.0169,3.06956 -6.8091,2.8136 -5.9985,-1.93799 z"
           id="path10173" />
        <path
           style="fill:#4c566a;stroke-width:3.66575;stroke-linecap:round;stroke-linejoin:round"
           d="m 1759.225,499.72824 c -0.2817,-0.76188 -3.1913,-10.61125 -6.4657,-21.8875 -3.2744,-11.27626 -6.2531,-21.44636 -6.6193,-22.60023 -0.4727,-1.48932 2.3836,-0.0157 9.8457,5.0795 10.0374,6.85374 10.8001,7.17745 16.9102,7.17745 5.1534,0 7.5539,-0.65196 12.3349,-3.35021 3.2649,-1.84262 5.9502,-2.93845 5.9672,-2.43517 0.017,0.50327 -2.2651,9.06777 -5.0714,19.03222 -5.8012,20.59915 -3.6989,18.4221 -19.0623,19.74042 -5.4297,0.46593 -7.4597,0.27004 -7.8393,-0.75648 z"
           id="path10175" />
      </g>
    </g>
    <g
       id="g15521"
       transform="translate(-4046.4128,880.57477)">
      <rect
         style="fill:#d8dee9;stroke-width:3.3285;stroke-linecap:round;stroke-linejoin:round"
         id="rect12340"
         width="1273.9775"
         height="808.67395"
         x="2351.4902"
         y="-52.847065" />
      <g
         id="g12396"
         transform="translate(1324.5558,-1.3264982)">
        <path
           style="fill:#88c0d0;stroke-width:2.59208;stroke-linecap:round;stroke-linejoin:round"
           d="m 1671.6692,582.07846 c -28.2014,-1.18 -94.828,-3.90522 -148.0592,-6.05602 -53.2311,-2.15081 -96.8237,-3.98 -96.8723,-4.06485 -0.2411,-0.42053 13.1653,-163.53525 13.4636,-163.81162 0.1907,-0.17666 3.2741,-2.21944 6.8518,-4.53953 18.5376,-12.02103 39.8428,-19.76315 63.9027,-23.22161 12.6708,-1.82134 37.6556,-1.82255 52.0405,-0.003 34.1218,4.31722 70.3562,15.08156 107.8806,32.04873 l 9.1567,4.14032 21.9934,83.35573 c 12.0963,45.84565 22.0095,83.61402 22.0293,83.92971 0.02,0.31568 -0.2223,0.52743 -0.538,0.47056 -0.3156,-0.0569 -23.6478,-1.06889 -51.8491,-2.2489 z"
           id="path12342" />
        <path
           style="fill:#88c0d0;stroke-width:2.59208;stroke-linecap:round;stroke-linejoin:round"
           d="m 1824.3468,571.10431 c 0,-0.38518 54.71,-136.70582 60.5974,-150.99032 l 2.2738,-5.51671 13.9085,-5.47993 c 35.1751,-13.85892 69.0297,-24.96078 102.3009,-33.54729 15.1492,-3.90965 39.8421,-9.49939 40.1608,-9.09121 0.096,0.12299 2.2572,3.34476 4.8027,7.15948 l 4.628,6.93586 -13.1521,77.57525 c -7.2336,42.66639 -13.4842,77.68245 -13.8902,77.81347 -0.406,0.13103 -44.9917,7.99574 -99.0794,17.47713 -54.0877,9.4814 -99.2883,17.43315 -100.4458,17.67057 -1.1575,0.23741 -2.1046,0.23458 -2.1046,-0.006 z"
           id="path12344" />
        <path
           style="fill:#88c0d0;stroke-width:2.59208;stroke-linecap:round;stroke-linejoin:round"
           d="m 1300.4979,538.47175 c -27.7805,-10.45356 -50.772,-19.113 -51.0924,-19.2432 -0.836,-0.33978 -44.8035,-138.70619 -44.1599,-138.97215 1.4234,-0.58827 66.1902,23.76624 79.5636,29.91864 l 5.7398,2.64056 30.9321,71.84083 c 17.0126,39.51246 31.0667,72.09912 31.2312,72.41481 0.1645,0.31569 -0.1517,0.5364 -0.7027,0.49048 -0.551,-0.0459 -23.7313,-8.6364 -51.5117,-19.08997 z"
           id="path12346" />
        <path
           style="fill:#81a1c1;stroke-width:2.59208;stroke-linecap:round;stroke-linejoin:round"
           d="m 1324.5121,487.02558 c -17.098,-39.66001 -30.9868,-72.22536 -30.8639,-72.36744 0.1229,-0.14208 13.3499,6.20642 29.3933,14.10779 22.0225,10.8461 29.064,14.64176 28.7381,15.49109 -0.2375,0.61874 -5.114,9.0025 -10.8368,18.63057 l -10.405,17.50558 2.1197,4.76143 c 1.1659,2.61878 9.8182,20.17119 19.2273,39.00534 9.4092,18.83416 17.1076,34.41761 17.1076,34.6299 0,0.21229 -3.0134,0.37673 -6.6964,0.36542 l -6.6964,-0.0206 z"
           id="path12348" />
        <path
           style="fill:#81a1c1;stroke-width:2.59208;stroke-linecap:round;stroke-linejoin:round"
           d="m 1428.97,454.78468 -3.1597,-26.71302 2.8721,-6.45059 c 1.9859,-4.46035 3.7403,-7.16632 5.6863,-8.77035 1.5479,-1.27587 2.9663,-2.16772 3.1521,-1.98191 0.2568,0.25682 -4.1196,58.12957 -5.1964,68.71564 -0.1071,1.05229 -1.6165,-10.1076 -3.3544,-24.79977 z"
           id="path12350" />
        <path
           style="fill:#81a1c1;stroke-width:2.59208;stroke-linecap:round;stroke-linejoin:round"
           d="m 1704.2725,501.35422 c -11.9234,-45.2712 -21.5198,-82.47034 -21.3254,-82.66475 0.3482,-0.34826 41.8372,21.46085 42.7759,22.48558 0.2655,0.28983 -3.0804,11.71951 -7.4352,25.39928 l -7.9179,24.8723 11.8357,44.26249 c 6.5096,24.34436 11.8356,44.54465 11.8356,44.88952 0,0.53766 -6.2883,3.06683 -7.6251,3.06683 -0.2556,0 -10.2203,-37.04007 -22.1436,-82.31125 z"
           id="path12352" />
        <path
           style="fill:#81a1c1;stroke-width:2.59208;stroke-linecap:round;stroke-linejoin:round"
           d="m 1809.0408,571.60688 c 0,-0.31849 7.5949,-19.00141 16.8775,-41.51761 9.2827,-22.5162 16.9059,-41.45512 16.9406,-42.0865 0.035,-0.63137 -5.1369,-10.44637 -11.4922,-21.81109 l -11.5553,-20.66315 2.0764,-0.99183 c 11.5434,-5.51396 61.8389,-28.22448 62.062,-28.02359 0.1606,0.14467 -13.7795,35.23025 -30.9781,77.96794 l -31.2702,77.7049 h -6.3304 c -3.4817,0 -6.3303,-0.26058 -6.3303,-0.57907 z"
           id="path12354" />
        <path
           style="fill:#81a1c1;stroke-width:2.59208;stroke-linecap:round;stroke-linejoin:round"
           d="m 2043.9884,526.24232 c 0,-0.25202 6.3535,-18.51572 14.1188,-40.586 l 14.1189,-40.12779 -7.1567,-12.78355 -7.1568,-12.78355 20.3974,-13.36836 c 11.2186,-7.35259 20.49,-13.11742 20.6032,-12.81071 0.2465,0.66789 -42.64,131.11953 -43.3409,131.83402 -0.6279,0.64003 -11.5839,1.23204 -11.5839,0.62594 z"
           id="path12356" />
        <path
           style="fill:#88c0d0;stroke-width:3.66575;stroke-linecap:round;stroke-linejoin:round"
           d="m 1607.1761,318.49989 c -3.8693,-0.72714 -11.2965,-1.66248 -16.5051,-2.07854 -5.2086,-0.41604 -9.4701,-0.89899 -9.4701,-1.07321 0,-0.17422 3.0821,-8.50569 6.8492,-18.51439 10.3707,-27.55346 19.4944,-48.4839 31.1868,-71.54451 11.5693,-22.81772 12.9366,-26.93535 10.287,-30.97915 -3.1124,-4.75011 -18.0855,-6.43421 -28.8319,-3.24288 -6.6455,1.97351 -9.8839,3.80352 -15.0158,8.48537 -4.778,4.35897 -4.6237,3.8986 7.4328,-22.17759 l 9.7274,-21.03874 h 47.6551 47.6552 l 7.5474,16.76196 c 4.151,9.21908 7.5474,17.25599 7.5474,17.8598 0,0.60382 -2.2445,2.28855 -4.9878,3.74384 -6.9405,3.68196 -24.8203,20.98244 -35.7816,34.62244 -14.8582,18.4891 -34.0493,47.73527 -51.1974,78.02201 l -7.0637,12.47566 z"
           id="path12358" />
        <path
           style="fill:#5e81ac;stroke-width:3.66575;stroke-linecap:round;stroke-linejoin:round"
           d="m 1627.1496,150.65417 c 0.3653,-1.63698 2.2404,-8.82074 4.1669,-15.96392 l 3.5028,-12.9876 15.8597,-0.29903 c 14.4168,-0.27184 15.909,-0.12415 16.402,1.62345 0.2983,1.05736 1.8332,7.7669 3.411,14.91008 1.5778,7.14318 3.06,13.59639 3.2938,14.34047 0.3311,1.05425 -4.8425,1.35288 -23.4377,1.35288 h -23.8626 z"
           id="path12360" />
        <path
           style="fill:#d8dee9;stroke-width:3.66575;stroke-linecap:round;stroke-linejoin:round"
           d="m 1397.2099,565.10239 -25.4341,-6.15059 -19.1707,-38.42164 c -10.5439,-21.13191 -18.9995,-39.24104 -18.7901,-40.24253 0.3787,-1.81162 20.0045,-35.51846 20.6806,-35.51846 0.195,0 6.7855,3.65276 14.6456,8.11725 12.3855,7.03485 14.9942,8.11724 19.5636,8.11724 h 5.2724 l 4.7162,-7.30552 c 7.9376,-12.29558 25.9663,-33.79034 27.2581,-32.49858 0.2435,0.2436 -0.1122,1.91337 -0.7906,3.71062 -0.993,2.63086 -0.5271,9.3161 2.3904,34.30206 l 3.6239,31.03434 -3.1422,40.57584 c -1.9741,25.49259 -3.5597,40.54883 -4.2656,40.50319 -0.6179,-0.04 -12.5688,-2.84041 -26.5575,-6.22322 z"
           id="path12362" />
        <path
           style="fill:#d8dee9;stroke-width:3.66575;stroke-linecap:round;stroke-linejoin:round"
           d="m 1724.6,536.91184 c -6.4456,-24.07273 -11.7193,-44.37672 -11.7193,-45.11997 0,-1.09683 14.3739,-47.89704 15.0357,-48.95511 0.3159,-0.50496 13.2685,7.4227 14.3629,8.79083 0.5538,0.69235 4.2297,12.41862 8.1686,26.05837 3.9388,13.63974 7.3413,24.97934 7.5611,25.1991 0.6998,0.69983 23.8051,-1.78622 24.5393,-2.64035 0.3875,-0.45067 3.2886,-9.9639 6.447,-21.14051 l 5.7426,-20.32111 11.2883,-6.05497 c 6.2584,-3.35696 11.6844,-5.63522 12.1773,-5.11294 0.4889,0.51812 5.812,9.79788 11.8291,20.62168 l 10.9402,19.67965 -16.9747,41.47029 c -9.3361,22.80867 -17.1343,41.67437 -17.3293,41.92379 -0.195,0.24941 -16.1034,2.45966 -35.352,4.91166 l -34.9974,4.45819 z"
           id="path12364" />
        <path
           style="fill:#d8dee9;stroke-width:3.66575;stroke-linecap:round;stroke-linejoin:round"
           d="m 2029.2892,532.70603 c 0.01,-0.44645 5.8285,-34.90417 12.9326,-76.57271 l 12.9165,-75.761 -4.824,-7.30552 c -2.6532,-4.01804 -4.5725,-7.30553 -4.265,-7.30553 0.3074,0 7.7386,-1.19014 16.5137,-2.64476 8.7751,-1.45461 20.825,-3.17936 26.7777,-3.83277 5.9526,-0.6534 12.2683,-1.42042 14.0348,-1.70448 2.7067,-0.43524 0.4476,2.14309 -14.3644,16.39428 -9.6668,9.30092 -21.4697,21.57552 -26.2286,27.2769 -12.6759,15.18642 -17.8308,27.04538 -9.6577,22.21738 1.7265,-1.01987 3.309,-1.6364 3.5167,-1.37006 1.9491,2.50011 12.6766,22.8188 12.6766,24.01048 0,0.85541 -6.2449,19.28962 -13.8776,40.96492 l -13.8777,39.40965 -5.3208,3.51747 c -5.3822,3.55811 -6.9822,4.18074 -6.9528,2.70575 z"
           id="path12366" />
        <path
           style="fill:#e5e9f0;stroke-width:3.66575;stroke-linecap:round;stroke-linejoin:round"
           d="m 1752.7454,455.48192 c -26.3076,-17.91082 -65.0214,-38.67374 -95.3291,-51.12672 -78.8943,-32.41656 -146.2667,-36.16491 -196.5824,-10.93716 -26.433,13.25322 -47.4082,32.89626 -66.1019,61.90355 -4.0085,6.22 -6.2477,6.01906 -19.6089,-1.75964 -85.8862,-50.0017 -185.3648,-86.84967 -254.6876,-94.33911 -9.7797,-1.05656 -12.8317,-1.81425 -15.6331,-3.88102 l -3.4809,-2.56814 h 3.1116 c 4.9992,0 37.662,5.27946 54.1297,8.74927 46.4897,9.7956 97.0428,26.06563 141.7812,45.63098 20.4343,8.93644 60.0576,28.75548 72.9509,36.48905 5.0024,3.00046 9.5239,5.45539 10.0478,5.45539 0.5239,0 2.0242,-1.82638 3.334,-4.05863 6.1008,-10.39738 19.6707,-30.01355 27.8858,-40.31074 47.9587,-60.11382 109.6648,-91.45452 170.5556,-86.62581 29.6737,2.35315 57.2039,9.84756 83.3791,22.69787 25.131,12.33771 42.8519,25.18613 61.5569,44.63134 16.7501,17.41292 28.6557,34.29917 39.6265,56.20393 l 5.2067,10.39591 30.5976,-15.34292 c 86.1593,-43.20388 162.9095,-69.71975 232.4465,-80.30628 13.7811,-2.09806 23.8595,-2.85307 44.1462,-3.30712 15.0701,-0.33729 26.1479,-1.00954 25.9593,-1.57531 -0.5065,-1.51951 -21.757,-11.00334 -37.2573,-16.62742 -36.9812,-13.41817 -83.491,-23.56078 -118.891,-25.92715 -5.3574,-0.35812 -11.4453,-0.94343 -13.5288,-1.30068 -3.6086,-0.61877 -3.4548,-0.72 3.2469,-2.13691 11.115,-2.34998 42.2207,-6.61446 61.2091,-8.39153 73.0389,-6.83552 151.1129,0.46059 210.2492,19.64803 l 12.2473,3.97381 -9.3087,2.47108 c -24.5372,6.5137 -76.1158,31.97119 -130.8256,64.57119 -7.6469,4.55655 -14.2088,8.28464 -14.5821,8.28464 -1.0444,0 12.9753,-14.0193 27.4032,-27.40239 7.1432,-6.62589 13.1681,-12.47926 13.3888,-13.00748 0.7782,-1.86251 -27.1184,1.59424 -73.9976,9.16928 -25.7302,4.15765 -124.0727,34.59779 -146.1159,45.22755 -5.9556,2.87194 -15.6882,7.29017 -21.6281,9.8183 -25.2428,10.7439 -79.5939,37.68924 -88.7313,43.98988 -1.2457,0.85894 -4.6266,1.41545 -8.1173,1.33614 -5.6569,-0.12852 -6.7478,-0.65704 -20.0523,-9.71503 z"
           id="path12368" />
        <path
           style="fill:#e5e9f0;stroke-width:1.29604;stroke-linecap:round;stroke-linejoin:round"
           d="m 2051.4501,421.47401 c 0,-1.78403 5.5314,-10.44182 10.4453,-16.34919 1.952,-2.34655 2.9157,-3.01273 13.9063,-9.61261 66.84,-40.13785 119.3835,-66.05813 145.9741,-72.01053 4.941,-1.10608 6.4642,-1.22821 6.4482,-0.51706 -0.01,0.26307 -0.5656,1.49602 -1.2436,2.73988 l -1.2329,2.26158 -4.2873,0.85428 c -27.3375,5.44723 -86.034,37.10922 -157.379,84.89329 -6.6275,4.4388 -12.1807,8.12793 -12.3405,8.19808 -0.1599,0.0702 -0.2906,-0.13582 -0.2906,-0.45772 z"
           id="path12370" />
        <path
           style="fill:#eceff4;stroke-width:1.29604;stroke-linecap:round;stroke-linejoin:round"
           d="m 1772.0505,441.97835 c -14.7247,-30.03577 -35.6152,-56.57139 -59.9407,-76.13812 l -3.7802,-3.04067 6.1594,-3.27775 c 41.0851,-21.86348 81.4158,-36.02007 124.9725,-43.86695 22.2175,-4.00254 40.6871,-5.88312 63.9631,-6.51274 48.2412,-1.30492 96.9911,5.46464 144.9369,20.12637 17.8447,5.45684 39.9438,13.88607 51.4939,19.64118 l 3.8265,1.90665 -7.653,-0.13265 c -9.676,-0.16772 -25.1272,0.32867 -34.0559,1.09408 -62.849,5.38772 -138.4603,27.87791 -222.3591,66.13955 -19.3516,8.82523 -45.4139,21.77643 -59.5295,29.58221 -2.0358,1.12577 -3.8438,2.04205 -4.0178,2.03619 -0.1741,-0.006 -1.9813,-3.40668 -4.0161,-7.55735 z"
           id="path12372" />
        <path
           style="fill:#eceff4;stroke-width:1.29604;stroke-linecap:round;stroke-linejoin:round"
           d="m 1774.7779,447.1548 c -0.6484,-1.10491 -2.463,-4.59181 -4.0324,-7.74868 -1.5694,-3.15687 -3.3594,-6.60073 -3.9778,-7.65302 -0.6184,-1.05229 -1.2865,-2.26561 -1.4846,-2.69626 -0.3012,-0.65455 -1.38,-2.47494 -4.839,-8.16464 -1.602,-2.63528 -2.2846,-3.70611 -2.4676,-3.87115 -0.1167,-0.10523 -0.4546,-0.66195 -0.751,-1.23716 -0.2964,-0.57521 -0.8558,-1.38592 -1.243,-1.80159 -0.3873,-0.41567 -0.7041,-0.9208 -0.7041,-1.12252 0,-0.20172 -0.1292,-0.42416 -0.287,-0.49432 -0.1579,-0.0702 -0.7854,-0.89326 -1.3946,-1.82914 -0.6091,-0.93587 -1.2547,-1.88293 -1.4346,-2.10458 -0.1798,-0.22164 -1.7477,-2.31943 -3.4842,-4.66175 -8.9246,-12.03843 -23.0809,-26.97549 -34.4045,-36.30222 -4.9865,-4.10708 -5.5031,-4.64222 -4.8936,-5.0693 1.7127,-1.20024 24.7584,-12.67307 32.3144,-16.08706 31.5648,-14.2619 63.138,-24.13616 96.9299,-30.31407 7.9581,-1.45493 22.4789,-3.69832 26.0923,-4.03113 0.947,-0.0872 2.4107,-0.24729 3.2525,-0.35568 1.3279,-0.17099 8.3125,-0.78939 17.6815,-1.5655 3.8831,-0.32167 6.2091,-0.40186 21.3489,-0.73602 45.7699,-1.01021 92.5259,5.5063 138.7109,19.33253 17.9364,5.36954 39.1702,13.31889 52.7542,19.74966 l 4.7315,2.23994 -11.2366,0.0348 c -17.4213,0.0539 -29.5637,0.67932 -40.892,2.10615 -1.7889,0.22532 -3.8552,0.47848 -4.5918,0.56259 -0.7366,0.0841 -2.1141,0.26818 -3.0612,0.40905 -0.9471,0.14087 -1.9802,0.29353 -2.2959,0.33925 -0.3157,0.0457 -1.691,0.20686 -3.0563,0.3581 -1.3653,0.15123 -2.5805,0.33562 -2.7005,0.40975 -0.1199,0.0741 -1.0692,0.23451 -2.1094,0.35641 -3.1444,0.36847 -12.5444,2.05364 -20.45,3.66616 -4.1039,0.83708 -7.9782,1.61472 -8.6096,1.72809 -0.6314,0.11336 -1.4062,0.30083 -1.7219,0.41659 -0.3157,0.11576 -1.0906,0.29489 -1.722,0.39808 -0.9974,0.16301 -9.122,2.09324 -11.0012,2.61365 -1.2962,0.35899 -2.4032,0.61541 -3.5395,0.81995 -0.6314,0.11364 -1.4493,0.36781 -1.8176,0.56483 -0.3683,0.19701 -0.6696,0.27875 -0.6696,0.18164 0,-0.0971 -1.5067,0.24343 -3.3482,0.75673 -1.8415,0.51331 -3.7787,1.02699 -4.3048,1.14152 -5.431,1.18214 -30.8373,8.90566 -44.0049,13.37748 -15.9085,5.40267 -42.7727,15.38745 -43.8859,16.3114 -0.2759,0.22892 -0.5016,0.30299 -0.5016,0.16458 0,-0.1384 -0.3874,-0.0386 -0.8609,0.22173 -0.4736,0.26036 -1.0332,0.50358 -1.2436,0.54048 -0.9106,0.15969 -28.0748,11.55964 -29.8468,12.52577 -0.4209,0.22949 -0.9375,0.44991 -1.148,0.48982 -0.2104,0.0399 -1.7602,0.71969 -3.4438,1.51062 -1.6837,0.79093 -3.2334,1.48187 -3.4439,1.53542 -0.6288,0.15999 -13.9751,6.30146 -22.385,10.30076 -10.5272,5.00612 -34.2583,16.95309 -42.1762,21.23283 -3.5191,1.9021 -6.5721,3.45837 -6.7843,3.45837 -0.2123,0 -0.9166,-0.90402 -1.5651,-2.00892 z"
           id="path12374" />
        <path
           style="fill:#eceff4;stroke-width:1.29604;stroke-linecap:round;stroke-linejoin:round"
           d="m 1758.9334,335.80342 c -0.5804,-3.50212 -0.7587,-3.23035 3.2327,-4.92626 44.4139,-18.87118 90.1616,-33.12196 129.3359,-40.28919 43.2951,-7.92115 81.8485,-8.19654 111.1601,-0.79403 6.3589,1.60592 13.4215,3.92106 13.0611,4.28148 -0.1,0.0995 -3.2512,0.42434 -7.0037,0.7219 -24.2327,1.92156 -51.3002,5.69946 -76.693,10.70436 l -10.5594,2.08124 -8.9558,5.8e-4 c -46.7533,0.003 -96.0703,8.65252 -140.3963,24.62356 -4.3144,1.55451 -8.9502,3.27945 -10.3019,3.83318 -1.3516,0.55374 -2.5061,1.00679 -2.5655,1.00679 -0.059,0 -0.2008,-0.55962 -0.3142,-1.24361 z"
           id="path12376" />
        <path
           style="fill:#eceff4;stroke-width:1.29604;stroke-linecap:round;stroke-linejoin:round"
           d="m 1758.1719,330.45506 c -0.083,-0.26789 -0.6017,-3.67263 -1.1532,-7.56611 -0.5515,-3.89347 -1.7849,-11.87255 -2.7409,-17.73128 -0.956,-5.85874 -1.6734,-10.71707 -1.5941,-10.79629 0.2612,-0.26126 5.4084,2.53619 8.5746,4.66023 5.5203,3.70324 14.3748,11.04609 21.4358,17.77623 l 3.1173,2.97131 -4.6479,1.81163 c -4.0924,1.59505 -17.4076,7.03596 -21.3976,8.74354 -1.1269,0.48227 -1.4766,0.51095 -1.594,0.13074 z"
           id="path12378" />
        <path
           style="fill:#eceff4;stroke-width:1.29604;stroke-linecap:round;stroke-linejoin:round"
           d="m 1492.7799,333.14461 c -25.5774,-8.72441 -71.3926,-20.11954 -100.4458,-24.98285 -5.1517,-0.86236 -5.0319,-0.80159 -3.734,-1.89374 4.4656,-3.75751 14.8287,-8.85397 24.0145,-11.81001 31.5603,-10.15633 71.5865,-8.04626 117.6953,6.20457 7.8806,2.43567 18.3029,6.05688 18.8522,6.55019 0.1781,0.15996 0.2006,2.52083 0.05,5.24637 l -0.2741,4.95553 -3.8763,0.66131 c -14.4042,2.45739 -30.4468,7.62074 -46.1592,14.85645 l -2.8699,1.32162 z"
           id="path12380" />
        <path
           id="path12382"
           style="fill:#eceff4;stroke-width:1.29604;stroke-linecap:round;stroke-linejoin:round"
           d="m 1285.3379,299.02148 c -46.2958,-0.40899 -88.6562,5.28875 -124.0293,16.83594 l -5.2617,1.7168 v -0.0293 l -3.7305,1.34766 c -7.1821,2.59478 -15.4269,6.02219 -15.3125,6.36523 0.063,0.19036 3.1251,1.95803 6.8047,3.92774 3.6796,1.96971 6.8269,3.59778 6.9941,3.61718 0.1672,0.0194 1.4149,-0.24466 2.7735,-0.58593 l 2.4707,-0.61914 v -0.0274 l 8.1308,-1.85156 c 39.9713,-9.09873 81.3895,-14.50865 125.6055,-16.4043 12.2846,-0.52621 45.424,-0.52824 57.7813,-0.004 40.7296,1.72821 78.7285,6.27485 117.2148,14.02539 4.6984,0.94618 8.7391,1.65402 8.9785,1.57422 0.5715,-0.1905 -13.9506,-4.2532 -27.0332,-7.56446 -38.3907,-9.71682 -76.9219,-16.4404 -113.8926,-19.87109 -16.1936,-1.50269 -32.0622,-2.31679 -47.4941,-2.45313 z" />
        <path
           style="fill:#eceff4;stroke-width:1.29604;stroke-linecap:round;stroke-linejoin:round"
           d="m 1382.0025,446.64141 c -0.4209,-0.32073 -4.1231,-2.53627 -8.227,-4.92341 -42.0126,-24.4376 -97.0537,-48.47455 -146.8831,-64.14512 -41.8879,-13.17312 -85.1126,-22.58305 -123.069,-26.79188 l -4.2012,-0.46585 1.6719,-0.71007 c 6.1054,-2.59296 27.7956,-9.44871 41.5517,-13.13348 44.6816,-11.96866 90.0017,-18.81844 143.494,-21.68804 11.5761,-0.621 53.5076,-0.6198 65.0506,0.002 49.7126,2.67731 91.5273,8.48185 135.7533,18.8447 3.5295,0.82702 6.5428,1.50415 6.6963,1.50474 0.1536,5.8e-4 -2.3037,1.43687 -5.4606,3.19173 -10.3831,5.77184 -17.3465,10.24983 -26.2116,16.856 -28.0331,20.89019 -53.6598,50.11844 -75.1874,85.75414 -2.0342,3.36733 -3.8142,6.15964 -3.9556,6.20513 -0.1413,0.0455 -0.6014,-0.17971 -1.0223,-0.50044 z"
           id="path12384" />
        <path
           style="fill:#d08770;stroke-width:3.66575;stroke-linecap:round;stroke-linejoin:round"
           d="m 1550.8965,313.06546 c 0,-6.62351 3.0498,-31.25702 5.4244,-43.81315 7.2359,-38.26142 21.7682,-65.30779 39.8656,-74.19513 5.3919,-2.64787 7.347,-3.00504 16.4492,-3.00504 11.8328,0 16.1864,1.76838 16.1864,6.57482 0,1.50527 -3.8548,10.21459 -8.5662,19.35404 -13.5556,26.29591 -31.3076,67.57783 -38.8865,90.4295 l -2.3369,7.04606 -12.0179,0.22285 c -6.6098,0.12257 -12.9404,0.51567 -14.068,0.87354 -1.768,0.56114 -2.0501,0.0812 -2.0501,-3.48749 z"
           id="path12386" />
        <path
           style="fill:#d08770;stroke-width:3.66575;stroke-linecap:round;stroke-linejoin:round"
           d="m 1746.2917,336.94683 c 0.3807,-2.9029 1.0144,-16.47981 1.4083,-30.1709 l 0.7162,-24.8929 1.9774,11.36415 c 1.0875,6.25028 2.908,17.45209 4.0456,24.8929 1.1375,7.44081 2.2965,14.82364 2.5756,16.40629 0.5246,2.9754 0.6523,2.88452 -10.0069,7.11899 -1.094,0.4346 -1.2539,-0.61859 -0.7162,-4.71853 z"
           id="path12388" />
        <path
           style="fill:#d08770;stroke-width:3.66575;stroke-linecap:round;stroke-linejoin:round"
           d="m 1696.9748,354.22218 c -18.9727,-13.01024 -50.6086,-26.79006 -75.5042,-32.88779 l -4.6457,-1.13789 4.556,-8.33374 c 27.5806,-50.44917 60.5081,-94.72519 83.092,-111.72963 7.3409,-5.52732 18.209,-10.46792 19.667,-8.94059 3.1297,3.27837 9.9059,33.65588 11.7617,52.72739 1.439,14.78768 1.4691,43.77922 0.063,60.15025 -1.5668,18.23557 -5.4468,43.65089 -6.8739,45.02543 -0.6808,0.65577 -5.8791,3.65893 -11.5518,6.67372 l -10.3139,5.48143 -10.2497,-7.02858 z"
           id="path12390" />
        <path
           style="fill:#88c0d0;stroke-width:3.66575;stroke-linecap:round;stroke-linejoin:round"
           d="m 1733.1321,343.30355 c 4.3261,-25.35802 5.453,-39.69115 5.4975,-69.92584 l 0.046,-31.23362 2.4092,7.92076 c 4.3355,14.2543 4.9982,22.96849 4.2276,55.59541 -0.3941,16.68577 -1.011,31.94041 -1.3708,33.89921 -0.5031,2.73885 -1.6144,4.05124 -4.811,5.68207 -6.0169,3.06956 -6.8091,2.8136 -5.9985,-1.93799 z"
           id="path12392" />
        <path
           style="fill:#4c566a;stroke-width:3.66575;stroke-linecap:round;stroke-linejoin:round"
           d="m 1759.225,499.72824 c -0.2817,-0.76188 -3.1913,-10.61125 -6.4657,-21.8875 -3.2744,-11.27626 -6.2531,-21.44636 -6.6193,-22.60023 -0.4727,-1.48932 2.3836,-0.0157 9.8457,5.0795 10.0374,6.85374 10.8001,7.17745 16.9102,7.17745 5.1534,0 7.5539,-0.65196 12.3349,-3.35021 3.2649,-1.84262 5.9502,-2.93845 5.9672,-2.43517 0.017,0.50327 -2.2651,9.06777 -5.0714,19.03222 -5.8012,20.59915 -3.6989,18.4221 -19.0623,19.74042 -5.4297,0.46593 -7.4597,0.27004 -7.8393,-0.75648 z"
           id="path12394" />
      </g>
    </g>
    <g
       id="g15459"
       transform="translate(-18.160925,-7.4702943)">
      <rect
         style="fill:#4c566a;stroke-width:3.3285;stroke-linecap:round;stroke-linejoin:round"
         id="rect12429"
         width="1273.9775"
         height="808.67395"
         x="-323.41306"
         y="-52.847065" />
      <g
         id="g12307"
         transform="translate(-64.517374,24.229482)"
         style="stroke:#d8dee9;stroke-width:3;stroke-linecap:round;stroke-linejoin:round;stroke-miterlimit:4;stroke-dasharray:none">
        <path
           style="display:inline;fill:none;stroke:#d8dee9;stroke-width:3;stroke-linecap:round;stroke-linejoin:round;stroke-miterlimit:4;stroke-dasharray:none;stroke-opacity:1"
           d="M 421.82866,337.3623 C 628.91153,221.35155 822.57165,326.55143 822.57165,326.55143 681.69358,316.58749 490.33528,425.47225 490.33528,425.47225 428.50536,288.19198 290.51312,291.09897 290.51312,291.09897 287.82776,291.40015 180.50401,280.5939 98.221655,422.97911 c 0,0 -126.632083,-81.20557 -286.795995,-97.68138 0,0 169.601152,-72.15509 399.59933,-15.63215 0,0 -212.135876,-75.67259 -361.50985,-9.91904 l 16.10244,8.54797"
           id="path1434"
           sodipodi:nodetypes="ccccccccc" />
        <path
           style="display:inline;fill:none;stroke:#d8dee9;stroke-width:3;stroke-linecap:round;stroke-linejoin:round;stroke-miterlimit:4;stroke-dasharray:none;stroke-opacity:1"
           d="m 778.11059,376.86196 c 0,0 124.8207,-77.70462 166.49589,-80.76429 0,0 -121.72819,-52.9896 -307.98167,-13.19693"
           id="path2193"
           sodipodi:nodetypes="ccc" />
        <path
           style="display:inline;fill:none;stroke:#d8dee9;stroke-width:3;stroke-linecap:round;stroke-linejoin:round;stroke-miterlimit:4;stroke-dasharray:none;stroke-opacity:1"
           d="m 733.88028,269.22318 c 0,0 -76.98192,-41.35071 -260.85263,37.15162"
           id="path2195"
           sodipodi:nodetypes="cc" />
        <path
           style="display:inline;fill:none;stroke:#d8dee9;stroke-width:3;stroke-linecap:round;stroke-linejoin:round;stroke-miterlimit:4;stroke-dasharray:none;stroke-opacity:1"
           d="m 501.99256,294.63908 c 0,0 -23.49523,-23.31557 -35.13839,-26.70047"
           id="path2262" />
        <path
           style="display:inline;fill:none;stroke:#d8dee9;stroke-width:3;stroke-linecap:round;stroke-linejoin:round;stroke-miterlimit:4;stroke-dasharray:none;stroke-opacity:1"
           d="m 100.50091,282.31241 c 0,0 46.25487,-44.99851 164.76851,-0.92644"
           id="path2264"
           sodipodi:nodetypes="cc" />
        <path
           style="display:inline;fill:none;stroke:#d8dee9;stroke-width:3;stroke-linecap:round;stroke-linejoin:round;stroke-miterlimit:4;stroke-dasharray:none;stroke-opacity:1"
           d="m 764.8994,398.66664 c 1.20578,-16.84638 59.9771,-68.05889 59.9771,-68.05889 C 654.34129,344.50561 492.84214,441.4148 492.84214,441.4148 h -10.47601 c 0,0 -262.91718,-195.79998 -374.52599,-6.33707 h -8.41608 c 0,0 -150.795041,-92.76308 -276.73578,-101.38345 l -11.26262,-8.39655"
           id="path2337" />
        <path
           style="display:inline;fill:none;stroke:#d8dee9;stroke-width:3;stroke-linecap:round;stroke-linejoin:round;stroke-miterlimit:4;stroke-dasharray:none;stroke-opacity:1"
           d="m 764.8994,398.66664 c 0,0 128.74615,-89.41035 176.36583,-95.42715 l 3.34125,-7.14182"
           id="path2639" />
        <path
           style="display:inline;fill:none;stroke:#d8dee9;stroke-width:3;stroke-linecap:round;stroke-linejoin:round;stroke-miterlimit:4;stroke-dasharray:none;stroke-opacity:1"
           d="m 473.32637,312.73493 c 0,0 -11.46526,-87.67062 -22.78301,-105.56728"
           id="path3395"
           sodipodi:nodetypes="cc" />
        <path
           style="display:inline;fill:none;stroke:#d8dee9;stroke-width:3;stroke-linecap:round;stroke-linejoin:round;stroke-miterlimit:4;stroke-dasharray:none;stroke-opacity:1"
           d="m 459.5212,318.53329 c 0,0 5.97166,-69.37171 -1.0252,-88.84034"
           id="path3397"
           sodipodi:nodetypes="cc" />
        <path
           style="display:inline;fill:none;stroke:#d8dee9;stroke-width:3;stroke-linecap:round;stroke-linejoin:round;stroke-miterlimit:4;stroke-dasharray:none;stroke-opacity:1"
           d="m 329.91245,295.70673 c 0,0 65.11428,-125.85086 109.73221,-131.93694 0,0 25.90744,53.76356 5.9613,161.19254"
           id="path3399" />
        <path
           style="display:inline;fill:none;stroke:#d8dee9;stroke-width:3;stroke-linecap:round;stroke-linejoin:round;stroke-miterlimit:4;stroke-dasharray:none;stroke-opacity:1"
           d="m 264.46265,292.63616 c 0,0 3.03265,-144.07244 74.13057,-126.1203 12.09594,3.2411 4.21787,13.59747 -7.06261,35.48579 -20.30395,39.39719 -37.462,90.34877 -37.462,90.34877"
           id="path4120"
           sodipodi:nodetypes="ccsc" />
        <path
           style="display:inline;fill:none;stroke:#d8dee9;stroke-width:3;stroke-linecap:round;stroke-linejoin:round;stroke-miterlimit:4;stroke-dasharray:none;stroke-opacity:1"
           d="m 290.84458,186.39361 26.38179,-57.37947 h 96.113 l 16.84699,37.62615"
           id="path4652"
           sodipodi:nodetypes="cccc" />
        <path
           style="display:inline;fill:none;stroke:#d8dee9;stroke-width:3;stroke-linecap:round;stroke-linejoin:round;stroke-miterlimit:4;stroke-dasharray:none;stroke-opacity:1"
           d="m 339.72172,129.01414 9.1594,-34.183373 h 33.52218 l 7.76868,34.183373 z"
           id="path4826" />
        <path
           style="display:inline;fill:none;stroke:#d8dee9;stroke-width:3;stroke-linecap:round;stroke-linejoin:round;stroke-miterlimit:4;stroke-dasharray:none;stroke-opacity:1"
           d="m 153.81081,382.53207 -13.28944,165.0532 299.63903,12.07798 -44.52651,-169.10471 46.61036,24.80885 -16.09038,50.90934 24.13634,90.14961 -10.12981,3.23691"
           id="path4969"
           sodipodi:nodetypes="cccccccc" />
        <path
           style="display:inline;fill:none;stroke:#d8dee9;stroke-width:3;stroke-linecap:round;stroke-linejoin:round;stroke-miterlimit:4;stroke-dasharray:none;stroke-opacity:1"
           d="m 140.52137,547.58527 6.64472,-82.5266 -7.48488,-62.61123 5.90782,-13.35283 8.22178,-6.56254 -6.64472,82.5266"
           id="path5052" />
        <path
           style="display:inline;fill:none;stroke:#d8dee9;stroke-width:3;stroke-linecap:round;stroke-linejoin:round;stroke-miterlimit:4;stroke-dasharray:none;stroke-opacity:1"
           d="m 458.58876,425.36688 14.85028,51.31339 23.07925,-1.85464 12.14983,-42.33578 -15.82598,8.92495 h -10.47601 z"
           id="path5118" />
        <path
           style="display:inline;fill:none;stroke:#d8dee9;stroke-width:3;stroke-linecap:round;stroke-linejoin:round;stroke-miterlimit:4;stroke-dasharray:none;stroke-opacity:1"
           d="m 557.03745,462.4822 -34.89127,84.84479 h 15.16179 l 63.8742,-158.71948 -67.95022,31.04555 z"
           id="path5120" />
        <path
           style="display:inline;fill:none;stroke:#d8dee9;stroke-width:3;stroke-linecap:round;stroke-linejoin:round;stroke-miterlimit:4;stroke-dasharray:none;stroke-opacity:1"
           d="M 537.30797,547.32699 742.26866,511.33015 768.78808,355.01582 758.75212,339.9215 c 3.46956,-5.10718 -146.6068,38.05489 -157.56986,48.68597"
           id="path5122"
           sodipodi:nodetypes="ccccc" />
        <path
           style="display:inline;fill:none;stroke:#d8dee9;stroke-width:3;stroke-linecap:round;stroke-linejoin:round;stroke-miterlimit:4;stroke-dasharray:none;stroke-opacity:1"
           d="m 771.383,394.22991 14.60986,25.98834 -28.88608,82.1606 14.14404,-1.04488 45.01253,-136.41468 z"
           id="path5251" />
        <path
           style="display:inline;fill:none;stroke:#d8dee9;stroke-width:3;stroke-linecap:round;stroke-linejoin:round;stroke-miterlimit:4;stroke-dasharray:none;stroke-opacity:1"
           d="M 85.633651,534.43789 H 69.766255 L 5.9440246,386.55994 68.697126,417.62028 46.24866,455.38942 Z"
           id="path5253" />
        <path
           style="display:inline;fill:none;stroke:#d8dee9;stroke-width:3;stroke-linecap:round;stroke-linejoin:round;stroke-miterlimit:4;stroke-dasharray:none;stroke-opacity:1"
           d="M 69.766255,534.43789 -37.102816,494.43008 -82.179757,352.78804 c 0,0 65.898092,22.77105 88.1238507,33.77193"
           id="path5255" />
        <path
           style="display:inline;fill:none;stroke:#d8dee9;stroke-width:3;stroke-linecap:round;stroke-linejoin:round;stroke-miterlimit:4;stroke-dasharray:none;stroke-opacity:1"
           d="m 85.633651,534.43789 54.887719,13.14738"
           id="path5366" />
        <path
           style="display:inline;fill:none;stroke:#d8dee9;stroke-width:3;stroke-linecap:round;stroke-linejoin:round;stroke-miterlimit:4;stroke-dasharray:none;stroke-opacity:1"
           d="m 450.29021,556.42634 71.85597,-9.09935"
           id="path5368" />
        <path
           style="display:inline;fill:none;stroke:#d8dee9;stroke-width:3;stroke-linecap:round;stroke-linejoin:round;stroke-miterlimit:4;stroke-dasharray:none;stroke-opacity:1"
           d="m 742.26866,511.33015 14.83812,-8.9513"
           id="path5370" />
      </g>
    </g>
    <g
       id="g15549"
       transform="translate(-21.986574,-7.4702943)">
      <rect
         style="fill:#d8dee9;stroke-width:3.3285;stroke-linecap:round;stroke-linejoin:round"
         id="rect12913"
         width="1273.9775"
         height="808.67395"
         x="-1672.936"
         y="-52.847065" />
      <g
         id="g12963"
         transform="translate(-1414.0404,24.229482)"
         style="stroke:#4c566a;stroke-width:3;stroke-linecap:round;stroke-linejoin:round;stroke-miterlimit:4;stroke-dasharray:none;stroke-opacity:1">
        <path
           style="display:inline;fill:none;stroke:#4c566a;stroke-width:3;stroke-linecap:round;stroke-linejoin:round;stroke-miterlimit:4;stroke-dasharray:none;stroke-opacity:1"
           d="M 421.82866,337.3623 C 628.91153,221.35155 822.57165,326.55143 822.57165,326.55143 681.69358,316.58749 490.33528,425.47225 490.33528,425.47225 428.50536,288.19198 290.51312,291.09897 290.51312,291.09897 287.82776,291.40015 180.50401,280.5939 98.221655,422.97911 c 0,0 -126.632083,-81.20557 -286.795995,-97.68138 0,0 169.601152,-72.15509 399.59933,-15.63215 0,0 -212.135876,-75.67259 -361.50985,-9.91904 l 16.10244,8.54797"
           id="path12915"
           sodipodi:nodetypes="ccccccccc" />
        <path
           style="display:inline;fill:none;stroke:#4c566a;stroke-width:3;stroke-linecap:round;stroke-linejoin:round;stroke-miterlimit:4;stroke-dasharray:none;stroke-opacity:1"
           d="m 778.11059,376.86196 c 0,0 124.8207,-77.70462 166.49589,-80.76429 0,0 -121.72819,-52.9896 -307.98167,-13.19693"
           id="path12917"
           sodipodi:nodetypes="ccc" />
        <path
           style="display:inline;fill:none;stroke:#4c566a;stroke-width:3;stroke-linecap:round;stroke-linejoin:round;stroke-miterlimit:4;stroke-dasharray:none;stroke-opacity:1"
           d="m 733.88028,269.22318 c 0,0 -76.98192,-41.35071 -260.85263,37.15162"
           id="path12919"
           sodipodi:nodetypes="cc" />
        <path
           style="display:inline;fill:none;stroke:#4c566a;stroke-width:3;stroke-linecap:round;stroke-linejoin:round;stroke-miterlimit:4;stroke-dasharray:none;stroke-opacity:1"
           d="m 501.99256,294.63908 c 0,0 -23.49523,-23.31557 -35.13839,-26.70047"
           id="path12921" />
        <path
           style="display:inline;fill:none;stroke:#4c566a;stroke-width:3;stroke-linecap:round;stroke-linejoin:round;stroke-miterlimit:4;stroke-dasharray:none;stroke-opacity:1"
           d="m 100.50091,282.31241 c 0,0 46.25487,-44.99851 164.76851,-0.92644"
           id="path12923"
           sodipodi:nodetypes="cc" />
        <path
           style="display:inline;fill:none;stroke:#4c566a;stroke-width:3;stroke-linecap:round;stroke-linejoin:round;stroke-miterlimit:4;stroke-dasharray:none;stroke-opacity:1"
           d="m 764.8994,398.66664 c 1.20578,-16.84638 59.9771,-68.05889 59.9771,-68.05889 C 654.34129,344.50561 492.84214,441.4148 492.84214,441.4148 h -10.47601 c 0,0 -262.91718,-195.79998 -374.52599,-6.33707 h -8.41608 c 0,0 -150.795041,-92.76308 -276.73578,-101.38345 l -11.26262,-8.39655"
           id="path12925" />
        <path
           style="display:inline;fill:none;stroke:#4c566a;stroke-width:3;stroke-linecap:round;stroke-linejoin:round;stroke-miterlimit:4;stroke-dasharray:none;stroke-opacity:1"
           d="m 764.8994,398.66664 c 0,0 128.74615,-89.41035 176.36583,-95.42715 l 3.34125,-7.14182"
           id="path12927" />
        <path
           style="display:inline;fill:none;stroke:#4c566a;stroke-width:3;stroke-linecap:round;stroke-linejoin:round;stroke-miterlimit:4;stroke-dasharray:none;stroke-opacity:1"
           d="m 473.32637,312.73493 c 0,0 -11.46526,-87.67062 -22.78301,-105.56728"
           id="path12929"
           sodipodi:nodetypes="cc" />
        <path
           style="display:inline;fill:none;stroke:#4c566a;stroke-width:3;stroke-linecap:round;stroke-linejoin:round;stroke-miterlimit:4;stroke-dasharray:none;stroke-opacity:1"
           d="m 459.5212,318.53329 c 0,0 5.97166,-69.37171 -1.0252,-88.84034"
           id="path12931"
           sodipodi:nodetypes="cc" />
        <path
           style="display:inline;fill:none;stroke:#4c566a;stroke-width:3;stroke-linecap:round;stroke-linejoin:round;stroke-miterlimit:4;stroke-dasharray:none;stroke-opacity:1"
           d="m 329.91245,295.70673 c 0,0 65.11428,-125.85086 109.73221,-131.93694 0,0 25.90744,53.76356 5.9613,161.19254"
           id="path12933" />
        <path
           style="display:inline;fill:none;stroke:#4c566a;stroke-width:3;stroke-linecap:round;stroke-linejoin:round;stroke-miterlimit:4;stroke-dasharray:none;stroke-opacity:1"
           d="m 264.46265,292.63616 c 0,0 3.03265,-144.07244 74.13057,-126.1203 12.09594,3.2411 4.21787,13.59747 -7.06261,35.48579 -20.30395,39.39719 -37.462,90.34877 -37.462,90.34877"
           id="path12935"
           sodipodi:nodetypes="ccsc" />
        <path
           style="display:inline;fill:none;stroke:#4c566a;stroke-width:3;stroke-linecap:round;stroke-linejoin:round;stroke-miterlimit:4;stroke-dasharray:none;stroke-opacity:1"
           d="m 290.84458,186.39361 26.38179,-57.37947 h 96.113 l 16.84699,37.62615"
           id="path12937"
           sodipodi:nodetypes="cccc" />
        <path
           style="display:inline;fill:none;stroke:#4c566a;stroke-width:3;stroke-linecap:round;stroke-linejoin:round;stroke-miterlimit:4;stroke-dasharray:none;stroke-opacity:1"
           d="m 339.72172,129.01414 9.1594,-34.183373 h 33.52218 l 7.76868,34.183373 z"
           id="path12939" />
        <path
           style="display:inline;fill:none;stroke:#4c566a;stroke-width:3;stroke-linecap:round;stroke-linejoin:round;stroke-miterlimit:4;stroke-dasharray:none;stroke-opacity:1"
           d="m 153.81081,382.53207 -13.28944,165.0532 299.63903,12.07798 -44.52651,-169.10471 46.61036,24.80885 -16.09038,50.90934 24.13634,90.14961 -10.12981,3.23691"
           id="path12941"
           sodipodi:nodetypes="cccccccc" />
        <path
           style="display:inline;fill:none;stroke:#4c566a;stroke-width:3;stroke-linecap:round;stroke-linejoin:round;stroke-miterlimit:4;stroke-dasharray:none;stroke-opacity:1"
           d="m 140.52137,547.58527 6.64472,-82.5266 -7.48488,-62.61123 5.90782,-13.35283 8.22178,-6.56254 -6.64472,82.5266"
           id="path12943" />
        <path
           style="display:inline;fill:none;stroke:#4c566a;stroke-width:3;stroke-linecap:round;stroke-linejoin:round;stroke-miterlimit:4;stroke-dasharray:none;stroke-opacity:1"
           d="m 458.58876,425.36688 14.85028,51.31339 23.07925,-1.85464 12.14983,-42.33578 -15.82598,8.92495 h -10.47601 z"
           id="path12945" />
        <path
           style="display:inline;fill:none;stroke:#4c566a;stroke-width:3;stroke-linecap:round;stroke-linejoin:round;stroke-miterlimit:4;stroke-dasharray:none;stroke-opacity:1"
           d="m 557.03745,462.4822 -34.89127,84.84479 h 15.16179 l 63.8742,-158.71948 -67.95022,31.04555 z"
           id="path12947" />
        <path
           style="display:inline;fill:none;stroke:#4c566a;stroke-width:3;stroke-linecap:round;stroke-linejoin:round;stroke-miterlimit:4;stroke-dasharray:none;stroke-opacity:1"
           d="M 537.30797,547.32699 742.26866,511.33015 768.78808,355.01582 758.75212,339.9215 c 3.46956,-5.10718 -146.6068,38.05489 -157.56986,48.68597"
           id="path12949"
           sodipodi:nodetypes="ccccc" />
        <path
           style="display:inline;fill:none;stroke:#4c566a;stroke-width:3;stroke-linecap:round;stroke-linejoin:round;stroke-miterlimit:4;stroke-dasharray:none;stroke-opacity:1"
           d="m 771.383,394.22991 14.60986,25.98834 -28.88608,82.1606 14.14404,-1.04488 45.01253,-136.41468 z"
           id="path12951" />
        <path
           style="display:inline;fill:none;stroke:#4c566a;stroke-width:3;stroke-linecap:round;stroke-linejoin:round;stroke-miterlimit:4;stroke-dasharray:none;stroke-opacity:1"
           d="M 85.633651,534.43789 H 69.766255 L 5.9440246,386.55994 68.697126,417.62028 46.24866,455.38942 Z"
           id="path12953" />
        <path
           style="display:inline;fill:none;stroke:#4c566a;stroke-width:3;stroke-linecap:round;stroke-linejoin:round;stroke-miterlimit:4;stroke-dasharray:none;stroke-opacity:1"
           d="M 69.766255,534.43789 -37.102816,494.43008 -82.179757,352.78804 c 0,0 65.898092,22.77105 88.1238507,33.77193"
           id="path12955" />
        <path
           style="display:inline;fill:none;stroke:#4c566a;stroke-width:3;stroke-linecap:round;stroke-linejoin:round;stroke-miterlimit:4;stroke-dasharray:none;stroke-opacity:1"
           d="m 85.633651,534.43789 54.887719,13.14738"
           id="path12957" />
        <path
           style="display:inline;fill:none;stroke:#4c566a;stroke-width:3;stroke-linecap:round;stroke-linejoin:round;stroke-miterlimit:4;stroke-dasharray:none;stroke-opacity:1"
           d="m 450.29021,556.42634 71.85597,-9.09935"
           id="path12959" />
        <path
           style="display:inline;fill:none;stroke:#4c566a;stroke-width:3;stroke-linecap:round;stroke-linejoin:round;stroke-miterlimit:4;stroke-dasharray:none;stroke-opacity:1"
           d="m 742.26866,511.33015 14.83812,-8.9513"
           id="path12961" />
      </g>
    </g>
  </g>
  <metadata
     id="metadata943">
    <rdf:RDF>
      <cc:Work
         rdf:about="">
        <dc:title>Deniz Mall</dc:title>
        <dc:date>10.03.22</dc:date>
        <dc:creator>
          <cc:Agent>
            <dc:title>Tachanka</dc:title>
          </cc:Agent>
        </dc:creator>
        <dc:rights>
          <cc:Agent>
            <dc:title>Creative Commons Attribution 4.0 International License</dc:title>
          </cc:Agent>
        </dc:rights>
        <dc:source>https://github.com/tachanka61/graphics</dc:source>
        <dc:description>Deniz Mall vector</dc:description>
        <cc:license
           rdf:resource="http://creativecommons.org/licenses/by-sa/4.0/" />
      </cc:Work>
      <cc:License
         rdf:about="http://creativecommons.org/licenses/by-sa/4.0/">
        <cc:permits
           rdf:resource="http://creativecommons.org/ns#Reproduction" />
        <cc:permits
           rdf:resource="http://creativecommons.org/ns#Distribution" />
        <cc:requires
           rdf:resource="http://creativecommons.org/ns#Notice" />
        <cc:requires
           rdf:resource="http://creativecommons.org/ns#Attribution" />
        <cc:permits
           rdf:resource="http://creativecommons.org/ns#DerivativeWorks" />
        <cc:requires
           rdf:resource="http://creativecommons.org/ns#ShareAlike" />
      </cc:License>
    </rdf:RDF>
  </metadata>
</svg>
