<?xml version="1.0" encoding="UTF-8" standalone="no"?>
<!-- Created with Inkscape (http://www.inkscape.org/) -->

<svg
   width="256"
   height="255.99998"
   viewBox="0 0 67.733332 67.733332"
   version="1.1"
   id="svg5"
   xmlns:xlink="http://www.w3.org/1999/xlink"
   xmlns="http://www.w3.org/2000/svg"
   xmlns:svg="http://www.w3.org/2000/svg"
   xmlns:rdf="http://www.w3.org/1999/02/22-rdf-syntax-ns#"
   xmlns:cc="http://creativecommons.org/ns#">
  <defs
     id="defs2">
    <linearGradient
       id="linearGradient1830">
      <stop
         style="stop-color:#b48ead;stop-opacity:1"
         offset="0"
         id="stop1826" />
      <stop
         style="stop-color:#5e81ac;stop-opacity:1"
         offset="1"
         id="stop1828" />
    </linearGradient>
    <linearGradient
       xlink:href="#linearGradient1830"
       id="linearGradient1832"
       x1="122.0688"
       y1="69.598328"
       x2="84.536621"
       y2="31.894394"
       gradientUnits="userSpaceOnUse"
       gradientTransform="translate(-62.882163,8.2044746)" />
  </defs>
  <g
     id="layer1"
     transform="translate(-22.702039,-41.146498)">
    <g
       id="g29395">
      <g
         id="g29239"
         transform="matrix(1.9133093,0,0,1.9133093,-20.733984,-37.579481)">
        <g
           id="path1744"
           style="stroke-width:0.5;stroke-miterlimit:4;stroke-dasharray:none"
           transform="matrix(0.94412263,0,0,0.94412263,2.2575766,3.288252)">
          <path
             style="color:#000000;fill:url(#linearGradient1832);stroke-width:0.5;stroke-linecap:round;stroke-linejoin:round;stroke-miterlimit:4;stroke-dasharray:none;paint-order:fill markers stroke"
             d="M 59.150795,58.847034 A 18.748169,18.748169 0 0 1 40.402626,77.595203 18.748169,18.748169 0 0 1 21.654457,58.847034 18.748169,18.748169 0 0 1 40.402626,40.098866 18.748169,18.748169 0 0 1 59.150795,58.847034 Z"
             id="path7950" />
          <path
             style="color:#000000;fill:#2e3440;fill-opacity:0.1509;stroke-width:0.486999;stroke-linecap:round;stroke-linejoin:round;stroke-miterlimit:4;stroke-dasharray:none;paint-order:fill markers stroke"
             d="m 40.402344,40.100109 c -10.348271,0 -18.747547,8.399276 -18.747547,18.747547 0,10.348271 8.399276,18.747547 18.747547,18.747547 10.348271,0 18.747547,-8.399276 18.747547,-18.747547 0,-10.348271 -8.399276,-18.747547 -18.747547,-18.747547 z m 0,0.973997 c 9.821884,0 16.354339,7.951666 16.354339,17.77355 0,9.821885 -6.532455,17.77355 -16.354339,17.77355 -9.821885,0 -17.77355,-7.951665 -17.77355,-17.77355 0,-9.821884 7.951665,-17.77355 17.77355,-17.77355 z"
             id="path7947" />
        </g>
        <g
           id="g29149">
          <path
             fill="#ffffff"
             d="m 33.842219,70.008416 c 0,0 1.392518,0.404338 3.246142,0.635483 0.750668,0.09361 3.606803,0.420794 5.796683,0.412227 0,0 2.66707,0.0023 4.13928,-0.20611 1.540473,-0.218821 2.413093,-0.498092 2.898853,-1.055399 0.0127,-0.132882 0.23444,-0.566029 -0.36436,-0.983732 -1.53086,-1.067919 -3.509853,-1.360204 -7.353893,-2.273194 -4.250756,-1.068712 -5.521028,-2.092158 -6.155776,-2.832674 -0.601675,-0.742279 0.11295,-2.283841 3.538146,-3.040054 1.73423,-0.422029 8.193173,-0.499574 8.193173,-0.499574 -1.853113,-1.471165 -5.331943,-4.105139 -6.043003,-4.665267 -0.62366,-0.491272 -1.62871,-1.24518 -1.73669,-1.9189 -0.14573,-0.655821 0.88657,-0.971598 1.43314,-1.008027 1.76096,-0.121446 4.16575,0.08502 6.303203,0.510081 1.07444,0.213667 1.26307,0.182183 1.26307,0.182183 1.53022,0.07287 2.72041,-0.728693 2.65968,-2.416862 -0.0122,-1.712424 -1.72424,-3.085608 -3.61913,-3.145566 -1.784453,-0.0565 -6.181733,0.25504 -6.181733,0.25504 5.12521,1.056616 5.963053,1.326205 6.230403,1.943171 0.15833,0.364547 -0.26346,0.726758 -1.675443,0.656029 -1.53787,-0.07709 -4.6889,-0.449422 -4.6889,-0.449422 -2.99917,-0.461492 -5.088605,-0.898715 -5.999648,0.291482 -0.595085,0.777567 0.08503,1.724624 0.352208,2.28319 1.190199,2.076844 3.24835,3.501676 4.55431,4.505771 0.49141,0.377822 1.99171,1.214492 1.99171,1.214492 -4.663587,-1.275219 -8.379919,-0.558669 -10.736041,0.680116 -2.708342,1.60315 -2.245035,4.308377 2.052443,6.83763 2.538331,1.493873 3.802116,2.211422 7.958008,2.721706 2.42919,0.387337 2.79114,0.545822 2.77271,0.74802 -0.026,0.284677 -2.87524,0.392554 -3.65832,0.446563 -1.99236,0.137398 -7.14507,0.171752 -7.170771,0.171752 z"
             id="path29037"
             style="opacity:0.5;fill:#4c566a;fill-opacity:1;stroke-width:1.29778" />
          <path
             fill="#ffffff"
             d="m 33.313052,69.479249 c 0,0 1.392518,0.404338 3.246142,0.635483 0.750668,0.09361 3.606803,0.420794 5.796683,0.412227 0,0 2.66707,0.0023 4.13928,-0.20611 1.540473,-0.218821 2.413093,-0.498092 2.898853,-1.055399 0.0127,-0.132882 0.23444,-0.566029 -0.36436,-0.983732 -1.53086,-1.067919 -3.509853,-1.360204 -7.353893,-2.273194 -4.250756,-1.068712 -5.521028,-2.092158 -6.155776,-2.832674 -0.601675,-0.742279 0.11295,-2.283841 3.538146,-3.040054 1.73423,-0.422029 8.193173,-0.499574 8.193173,-0.499574 -1.853113,-1.471165 -5.331943,-4.105139 -6.043003,-4.665267 -0.62366,-0.491272 -1.62871,-1.24518 -1.73669,-1.9189 -0.14573,-0.655821 0.88657,-0.971598 1.43314,-1.008027 1.76096,-0.121446 4.16575,0.08502 6.303203,0.510081 1.07444,0.213667 1.26307,0.182183 1.26307,0.182183 1.53022,0.07287 2.72041,-0.728693 2.65968,-2.416862 -0.0122,-1.712424 -1.72424,-3.085608 -3.61913,-3.145566 -1.784453,-0.0565 -6.181733,0.25504 -6.181733,0.25504 5.12521,1.056616 5.963053,1.326205 6.230403,1.943171 0.15833,0.364547 -0.26346,0.726758 -1.675443,0.656029 -1.53787,-0.07709 -4.6889,-0.449422 -4.6889,-0.449422 -2.99917,-0.461492 -5.088605,-0.898715 -5.999648,0.291482 -0.595085,0.777567 0.08503,1.724624 0.352208,2.28319 1.190199,2.076844 3.24835,3.501676 4.55431,4.505771 0.49141,0.377822 1.99171,1.214492 1.99171,1.214492 -4.663587,-1.275219 -8.379919,-0.558669 -10.736041,0.680116 -2.708342,1.60315 -2.245035,4.308377 2.052443,6.83763 2.538331,1.493873 3.802116,2.211422 7.958008,2.721706 2.42919,0.387337 2.79114,0.545822 2.77271,0.74802 -0.026,0.284677 -2.87524,0.392554 -3.65832,0.446563 -1.99236,0.137398 -7.14507,0.171752 -7.170771,0.171752 z"
             id="path832"
             style="opacity:1;fill:#eceff4;fill-opacity:1;stroke-width:1.29778" />
        </g>
      </g>
    </g>
  </g>
  <metadata
     id="metadata833">
    <rdf:RDF>
      <cc:Work
         rdf:about="">
        <cc:license
           rdf:resource="http://creativecommons.org/licenses/by-sa/4.0/" />
      </cc:Work>
      <cc:License
         rdf:about="http://creativecommons.org/licenses/by-sa/4.0/">
        <cc:permits
           rdf:resource="http://creativecommons.org/ns#Reproduction" />
        <cc:permits
           rdf:resource="http://creativecommons.org/ns#Distribution" />
        <cc:requires
           rdf:resource="http://creativecommons.org/ns#Notice" />
        <cc:requires
           rdf:resource="http://creativecommons.org/ns#Attribution" />
        <cc:permits
           rdf:resource="http://creativecommons.org/ns#DerivativeWorks" />
        <cc:requires
           rdf:resource="http://creativecommons.org/ns#ShareAlike" />
      </cc:License>
    </rdf:RDF>
  </metadata>
</svg>
