<?xml version="1.0" encoding="UTF-8" standalone="no"?>
<!-- Created with Inkscape (http://www.inkscape.org/) Edited with Emacs -->

<svg
   id="svg5"
   version="1.1"
   viewBox="0 0 135.46666 135.46667"
   height="512"
   width="512"
   xmlns:xlink="http://www.w3.org/1999/xlink"
   xmlns="http://www.w3.org/2000/svg"
   xmlns:svg="http://www.w3.org/2000/svg"
   xmlns:rdf="http://www.w3.org/1999/02/22-rdf-syntax-ns#"
   xmlns:cc="http://creativecommons.org/ns#">
  <defs
     id="defs2">
    <linearGradient
       id="linearGradient39570">
      <stop
         style="stop-color:#2ac3de;stop-opacity:1"
         offset="0"
         id="stop39566" />
      <stop
         style="stop-color:#f7768e;stop-opacity:1"
         offset="1"
         id="stop39568" />
    </linearGradient>
    <linearGradient
       id="linearGradient39564">
      <stop
         style="stop-color:#2ac3de;stop-opacity:1"
         offset="0"
         id="stop39560" />
      <stop
         style="stop-color:#f7768e;stop-opacity:1"
         offset="1"
         id="stop39562" />
    </linearGradient>
    <linearGradient
       id="linearGradient39558">
      <stop
         style="stop-color:#2ac3de;stop-opacity:1"
         offset="0"
         id="stop39554" />
      <stop
         style="stop-color:#f7768e;stop-opacity:1"
         offset="1"
         id="stop39556" />
    </linearGradient>
    <linearGradient
       id="linearGradient39552">
      <stop
         style="stop-color:#2ac3de;stop-opacity:1"
         offset="0"
         id="stop39548" />
      <stop
         style="stop-color:#f7768e;stop-opacity:1"
         offset="1"
         id="stop39550" />
    </linearGradient>
    <filter
       style="color-interpolation-filters:sRGB"
       id="filter44958"
       x="-0.4494528"
       y="-0.4494528"
       width="1.8989056"
       height="1.8989056">
      <feGaussianBlur
         stdDeviation="2.3579995"
         id="feGaussianBlur44960" />
    </filter>
    <linearGradient
       xlink:href="#linearGradient39552"
       id="linearGradient1549"
       gradientUnits="userSpaceOnUse"
       x1="-9.56742"
       y1="-229.92166"
       x2="-9.56742"
       y2="-217.11043"
       gradientTransform="matrix(0.99996393,0,0,0.99996393,320.15012,134.21971)" />
    <linearGradient
       xlink:href="#linearGradient39558"
       id="linearGradient1551"
       gradientUnits="userSpaceOnUse"
       x1="-9.56742"
       y1="-229.92166"
       x2="-9.56742"
       y2="-217.11043"
       gradientTransform="matrix(0.99996393,0,0,0.99996393,320.15012,134.21971)" />
    <linearGradient
       xlink:href="#linearGradient39564"
       id="linearGradient1553"
       gradientUnits="userSpaceOnUse"
       x1="-9.56742"
       y1="-229.92166"
       x2="-9.56742"
       y2="-217.11043"
       gradientTransform="matrix(0.99996393,0,0,0.99996393,320.15012,134.21971)" />
    <linearGradient
       xlink:href="#linearGradient39570"
       id="linearGradient1555"
       gradientUnits="userSpaceOnUse"
       x1="-9.56742"
       y1="-229.92166"
       x2="-9.56742"
       y2="-217.11043"
       gradientTransform="matrix(0.99996393,0,0,0.99996393,320.15012,134.21971)" />
    <filter
       style="color-interpolation-filters:sRGB"
       id="filter39266"
       x="-0.027000001"
       y="-0.027000001"
       width="1.054"
       height="1.054">
      <feGaussianBlur
         stdDeviation="0.66982338"
         id="feGaussianBlur39268" />
    </filter>
  </defs>
  <g
     id="layer1"
     transform="translate(-407.49054,71.18394)">
    <g
       id="g117020"
       transform="matrix(2.158659,0,0,2.158659,-195.93785,168.34709)">
      <g
         id="g116984">
        <circle
           style="fill:#000000;fill-opacity:1;stroke-width:1.02627;filter:url(#filter39266)"
           id="circle39246"
           cx="310.91605"
           cy="-79.585381"
           r="29.769928" />
        <circle
           style="fill:#172030;fill-opacity:1;stroke-width:1.02627"
           id="circle39002"
           cx="310.91605"
           cy="-79.585381"
           r="29.769928" />
        <circle
           style="opacity:0.412209;mix-blend-mode:normal;fill:#5d636e;fill-opacity:1;stroke-width:0.217033;filter:url(#filter44958)"
           id="circle39004"
           cx="69.37648"
           cy="72.174637"
           r="6.2956543"
           transform="matrix(2.4902897,0,0,2.4902897,138.14848,-259.32115)" />
      </g>
      <g
         id="g116979">
        <g
           id="g116925">
          <g
             id="g87546">
            <path
               d="m 317.54725,-65.761697 v -1.21107 h 1.36542 v 0.90237 l 0.7955,-0.65303 v -0.74801 l -2.16092,-1.23482 v -2.65961 l 0.36808,-0.47492 h 2.79019 l 0.45118,0.55804 v 1.21106 h -1.44853 v -0.42743 h -0.7955 v 1.15171 l 2.24403,1.18731 v 2.3984 l -1.9472,1.31793 z"
               style="font-size:4.27239px;line-height:1.25;font-family:AmazDooMRight;-inkscape-font-specification:AmazDooMRight;fill:#f7768e;fill-opacity:1;stroke-width:0.296828"
               id="path1495" />
            <path
               d="m 302.04084,-67.815757 v 1.092341 l 0.79551,0.676776 v -1.317933 h 1.44852 v 1.484157 l -1.95908,1.436658 -1.65037,-1.317933 v -5.509181 l 0.51056,-0.569909 h 2.5646 l 0.53429,0.53429 v 1.66226 h -1.44852 v -0.783641 h -0.79551 v 1.163578 h 0.77176 v 1.448537 z"
               id="path1497"
               style="font-size:4.27239px;line-height:1.25;font-family:AmazDooMLeft;-inkscape-font-specification:AmazDooMLeft;fill:#f7768e;fill-opacity:1;stroke-width:0.296828" />
            <path
               d="m 308.01306,-71.840781 h 1.44854 v 5.960365 l -1.44854,1.056711 v -3.407617 l -0.94986,2.386524 -1.06858,-2.362774 v 3.383867 l -1.44853,-1.056711 v -5.960365 h 1.44853 l 0.94986,2.160922 z"
               id="path1499"
               style="font-size:4.27239px;line-height:1.25;font-family:AmazDooMLeft;-inkscape-font-specification:AmazDooMLeft;fill:#f7768e;fill-opacity:1;stroke-width:0.296828" />
            <path
               d="m 311.99057,-68.397546 v -2.030326 h -0.79551 v 2.030326 z m -0.79551,1.412919 v 2.315277 l -1.36541,-1.092341 v -5.509181 l 0.51055,-0.569909 h 2.5646 l 0.5343,0.53429 v 5.5448 l -1.44853,1.092341 v -2.315277 z"
               id="path1501"
               style="font-size:4.27239px;line-height:1.25;font-family:AmazDooMLeft;-inkscape-font-specification:AmazDooMLeft;fill:#f7768e;fill-opacity:1;stroke-width:0.296828" />
            <path
               d="m 315.84937,-69.644231 v -0.783641 h -0.7955 v 4.381232 l 0.7955,-0.664906 v -0.653027 h 1.44852 v 1.484157 l -1.95908,1.436658 -1.65037,-1.317933 v -5.509181 l 0.51056,-0.569909 h 2.5646 l 0.53429,0.53429 v 1.66226 z"
               style="font-size:4.27239px;line-height:1.25;font-family:AmazDooMRight;-inkscape-font-specification:AmazDooMRight;fill:#f7768e;fill-opacity:1;stroke-width:0.296828"
               id="path1503" />
          </g>
          <g
             id="g1515"
             transform="matrix(0.99996393,0,0,0.99996393,-8.219804,100.27903)"
             style="fill:#172030;fill-opacity:1">
            <path
               id="path1505"
               style="font-size:4.27239px;line-height:1.25;font-family:AmazDooMLeft;-inkscape-font-specification:AmazDooMLeft;fill:#172030;fill-opacity:1;stroke-width:0.296839"
               d="m 310.27165,-170.71308 v 0.96657 h 0.79571 v 0.78345 h 1.44843 v -0.96657 h -1.44843 v -0.78345 z m 0,2.61228 v 0.96657 h 0.77212 v -0.96657 z m 2.24414,1.93549 -1.95908,1.43664 -1.65042,-1.31818 v 0.96657 l 1.65042,1.31817 1.95908,-1.43663 z" />
            <path
               id="path1507"
               style="font-size:4.27239px;line-height:1.25;font-family:AmazDooMLeft;-inkscape-font-specification:AmazDooMLeft;fill:#172030;fill-opacity:1;stroke-width:0.296839"
               d="m 316.24422,-168.51659 -0.95004,2.38668 -1.0685,-2.36261 v 0.96656 l 1.0685,2.36262 0.95004,-2.38669 z m -3.46697,2.35128 v 0.96657 l 1.44843,1.05671 v -0.96657 z m 4.9154,0 -1.44843,1.05671 v 0.96657 l 1.44843,-1.05671 z" />
            <path
               id="path1509"
               style="font-size:4.27239px;line-height:1.25;font-family:AmazDooMLeft;-inkscape-font-specification:AmazDooMLeft;fill:#172030;fill-opacity:1;stroke-width:0.296839"
               d="m 319.42661,-170.71308 v 0.96657 h 0.79524 v -0.96657 z m 0,3.44339 v 0.96657 h 0.79524 v -0.96657 z m -1.36583,1.22284 v 0.96657 l 1.36583,1.09258 v -0.96657 z m 3.6095,0 -1.44843,1.09258 v 0.96657 l 1.44843,-1.09258 z" />
            <path
               id="path1511"
               style="font-size:4.27239px;line-height:1.25;font-family:AmazDooMRight;-inkscape-font-specification:AmazDooMRight;fill:#172030;fill-opacity:1;stroke-width:0.296839"
               d="m 323.2853,-170.71308 v 0.96657 h 0.79572 v 0.78345 h 1.44843 v -0.96657 h -1.44843 v -0.78345 z m 2.24415,4.54777 -1.95909,1.43664 -1.65042,-1.31818 v 0.96657 l 1.65042,1.31817 1.95909,-1.43663 z" />
            <path
               id="path1513"
               style="font-size:4.27239px;line-height:1.25;font-family:AmazDooMRight;-inkscape-font-specification:AmazDooMRight;fill:#172030;fill-opacity:1;stroke-width:0.296839"
               d="m 327.14447,-170.78434 v 0.96656 h 0.79524 v 0.4276 h 1.4489 v -0.96657 h -1.4489 v -0.42759 z m -1.36583,1.79296 v 0.96657 l 1.34223,0.76692 h 0.0236 v 0.0132 l 0.63855,0.36482 0.15669,-0.12884 v -0.74805 z m 0,2.94453 v 0.96657 l 1.66269,1.31817 1.94728,-1.31817 v -0.96657 l -1.94728,1.31818 z" />
          </g>
        </g>
        <g
           id="g116948">
          <g
             id="g116931">
            <path
               d="m 297.74898,-95.693657 1.99998,1.205877 v 14.470548 l -8.97051,7.176441 0.23531,-0.55883 v -21.558742 l -0.58824,-0.735294 z m -3.49997,3.470575 v 11.323492 l 1.97057,-1.499996 v -9.823496 z"
               id="path1519"
               style="font-size:10.5833px;line-height:1.25;font-family:AmazDooMLeft;-inkscape-font-specification:AmazDooMLeft;fill:url(#linearGradient1549);fill-opacity:1;stroke-width:0.735291" />
            <path
               d="m 308.31305,-95.693657 1.32354,1.323523 v 13.441125 l -4.85291,3.558811 -4.0882,-3.264682 v -13.647018 l 1.26469,-1.411759 z m -4.23525,3.499984 v 9.176439 l 1.97058,1.67647 v -10.852909 z"
               id="path1521"
               style="font-size:10.5833px;line-height:1.25;font-family:AmazDooMLeft;-inkscape-font-specification:AmazDooMLeft;fill:url(#linearGradient1551);fill-opacity:1;stroke-width:0.735291" />
            <path
               d="m 323.43609,-85.252513 2.20586,7.852906 2.14704,-5.852918 v 7.823507 l -0.47058,0.676466 1.99999,1.499996 1.91174,1.411749 -0.38235,-1.764696 v -21.235214 l 0.55882,-0.85294 h -3.88232 l -1.82351,4.647043 -1.70587,-4.647043 h -3.76467 l 0.2353,0.705875 v 14.764657 l -0.20588,0.176474 3.17645,2.382344 z"
               id="path1523"
               style="font-size:10.5833px;line-height:1.25;font-family:AmazDooMLeft;-inkscape-font-specification:AmazDooMLeft;fill:url(#linearGradient1553);fill-opacity:1;stroke-width:0.735291" />
            <path
               d="m 311.90677,-95.693657 -1.32352,1.323523 v 13.441125 l 4.85291,3.558811 4.08819,-3.264682 v -13.647018 l -1.2647,-1.411759 z m 4.23525,3.499984 v 9.176439 l -1.97057,1.67647 v -10.852909 z"
               id="path1525"
               style="font-size:10.5833px;line-height:1.25;font-family:AmazDooMLeft;-inkscape-font-specification:AmazDooMLeft;fill:url(#linearGradient1555);fill-opacity:1;stroke-width:0.735291" />
          </g>
          <g
             id="g1537"
             transform="matrix(0.99996393,0,0,0.99996393,-8.219804,100.27903)"
             style="fill:#172030;fill-opacity:1">
            <path
               id="path1529"
               style="font-size:10.5833px;line-height:1.25;font-family:AmazDooMLeft;-inkscape-font-specification:AmazDooMLeft;fill:#172030;fill-opacity:1;stroke-width:0.735318"
               d="m 312.30904,-192.47968 v 2.8997 h 1.9704 v -2.8997 z m 5.55867,11.26512 -4.85311,3.55902 -4.08806,-3.26499 v 2.89969 l 4.08806,3.265 4.85311,-3.55902 z" />
            <path
               id="path1531"
               style="font-size:10.5833px;line-height:1.25;font-family:AmazDooMLeft;-inkscape-font-specification:AmazDooMLeft;fill:#172030;fill-opacity:1;stroke-width:0.735318"
               d="m 322.40271,-192.47968 v 2.8997 h 1.97088 v -2.8997 z m -3.58826,11.26512 v 2.8997 l 4.85309,3.55902 4.08854,-3.265 v -2.89969 l -4.08854,3.26499 z" />
            <path
               id="path1533"
               style="fill:#172030;fill-opacity:1;stroke:none;stroke-width:0.241641px;stroke-linecap:butt;stroke-linejoin:miter;stroke-opacity:1"
               d="m 298.65588,-195.97971 v 2.8997 l 0.58853,0.73531 v -0.73531 -2.16439 z m 3.82377,3.47077 v 2.8997 h 1.97088 v -2.8997 z m 5.50015,12.2062 -8.73539,6.98826 -0.23551,0.18831 v 2.89969 l 8.9709,-7.17656 z" />
            <path
               id="path1535"
               style="fill:#172030;fill-opacity:1;stroke:none;stroke-width:0.241641px;stroke-linecap:butt;stroke-linejoin:miter;stroke-opacity:1"
               d="m 328.46166,-195.97971 v 2.8997 l 0.2355,0.70605 v -0.70605 -2.19365 z m 11.17681,0 -0.5588,0.85283 v 2.04687 0.85283 l 0.5588,-0.85283 z m -7.97083,10.44156 v 2.8997 l 2.20638,7.85288 2.14692,-5.85273 v -2.8997 l -2.14692,5.85273 z m -3.17625,5.20615 v 2.8997 l 3.17625,2.38244 v -2.8997 l -2.97048,-2.22811 z m 7.05902,5.29394 v 2.89969 l 2.00013,1.50035 1.91142,1.41163 v -2.89971 l -0.38229,-0.28223 -1.52913,-1.12939 -1.5296,-1.14732 z" />
          </g>
          <g
             id="g1547"
             transform="matrix(0.99996393,0,0,0.99996393,-8.219804,100.27903)">
            <path
               id="path1539"
               style="font-size:10.5833px;line-height:1.25;font-family:AmazDooMLeft;-inkscape-font-specification:AmazDooMLeft;opacity:0.3;fill:#3f444a;fill-opacity:1;stroke-width:0.735318"
               d="m 298.65625,-195.97975 0.58806,0.73531 v 0.23126 h 7.21853 l 1.51686,0.91465 v -0.6749 l -2.00013,-1.20632 z m 0.58806,1.09777 v 21.19743 l -0.2355,0.5588 0.71878,-0.57485 v -20.57728 z" />
            <path
               id="path1541"
               style="font-size:10.5833px;line-height:1.25;font-family:AmazDooMLeft;-inkscape-font-specification:AmazDooMLeft;opacity:0.3;fill:#3f444a;fill-opacity:1;stroke-width:0.735318"
               d="m 310.19128,-195.97975 -1.26484,1.41209 v 13.64755 l 0.48328,0.38606 v -13.06704 l 1.26484,-1.41209 h 6.35297 l 0.84008,0.84055 v -0.48328 l -1.32337,-1.32384 z" />
            <path
               id="path1543"
               style="font-size:10.5833px;line-height:1.25;font-family:AmazDooMLeft;-inkscape-font-specification:AmazDooMLeft;opacity:0.3;fill:#3f444a;fill-opacity:1;stroke-width:0.735318"
               d="m 320.13818,-195.97975 -1.32383,1.32384 v 13.44177 l 0.48328,0.35444 v -12.82965 l 1.32383,-1.32383 h 6.35297 l 0.78156,0.87264 v -0.42712 l -1.26484,-1.41209 z" />
            <path
               id="path1545"
               style="opacity:0.3;fill:#3f444a;fill-opacity:1;stroke:none;stroke-width:0.241641px;stroke-linecap:butt;stroke-linejoin:miter;stroke-opacity:1"
               d="m 333.99899,-191.50183 -0.0664,0.16951 0.4127,1.14598 0.0704,-0.17949 z m -5.53696,-4.47792 0.23503,0.70605 v 14.76514 l -0.20577,0.17651 0.68906,0.51679 v -14.49188 l -0.23504,-0.70605 h 3.63641 l -0.35491,-0.96656 z m 7.29404,0 -1.75708,4.47792 0.41675,1.136 1.82362,-4.64736 h 2.84022 v -0.11326 l 0.55927,-0.8533 z" />
          </g>
        </g>
      </g>
    </g>
  </g>
  <metadata
     id="metadata848">
    <rdf:RDF>
      <cc:Work
         rdf:about="">
        <cc:license
           rdf:resource="http://creativecommons.org/licenses/by-sa/4.0/" />
      </cc:Work>
      <cc:License
         rdf:about="http://creativecommons.org/licenses/by-sa/4.0/">
        <cc:permits
           rdf:resource="http://creativecommons.org/ns#Reproduction" />
        <cc:permits
           rdf:resource="http://creativecommons.org/ns#Distribution" />
        <cc:requires
           rdf:resource="http://creativecommons.org/ns#Notice" />
        <cc:requires
           rdf:resource="http://creativecommons.org/ns#Attribution" />
        <cc:permits
           rdf:resource="http://creativecommons.org/ns#DerivativeWorks" />
        <cc:requires
           rdf:resource="http://creativecommons.org/ns#ShareAlike" />
      </cc:License>
    </rdf:RDF>
  </metadata>
</svg>
